0
SECTION
2
HEADER
9
$ACADVER
1
AC1015
9
$INSUNITS
70
4
0
ENDSEC
0
SECTION
2
TABLES
0
TABLE
2
LAYER
70
5
0
LAYER
2
Edge_Cuts
70
0
62
7
6
CONTINUOUS
0
LAYER
2
Mounting
70
0
62
3
6
CONTINUOUS
0
LAYER
2
Cmts_User
70
0
62
5
6
CONTINUOUS
0
LAYER
2
MCU_Area
70
0
62
1
6
CONTINUOUS
0
LAYER
2
USB_Area
70
0
62
4
6
CONTINUOUS
0
ENDTAB
0
ENDSEC
0
SECTION
2
ENTITIES
0
LINE
8
Edge_Cuts
10
3.0000
20
177.4000
30
0.0
11
273.7000
21
177.4000
31
0.0
0
LINE
8
Edge_Cuts
10
276.7000
20
174.4000
30
0.0
11
276.7000
21
3.0000
31
0.0
0
LINE
8
Edge_Cuts
10
3.0000
20
0.0000
30
0.0
11
123.3500
21
0.0000
31
0.0
0
LINE
8
Edge_Cuts
10
123.3500
20
0.0000
30
0.0
11
123.3500
21
-10.0000
31
0.0
0
ARC
8
Edge_Cuts
10
125.3500
20
-10.0000
30
0.0
40
2.0000
50
90.0000
51
180.0000
0
LINE
8
Edge_Cuts
10
125.3500
20
-12.0000
30
0.0
11
151.3500
21
-12.0000
31
0.0
0
ARC
8
Edge_Cuts
10
151.3500
20
-10.0000
30
0.0
40
2.0000
50
0.0000
51
90.0000
0
LINE
8
Edge_Cuts
10
153.3500
20
-10.0000
30
0.0
11
153.3500
21
0.0000
31
0.0
0
LINE
8
Edge_Cuts
10
153.3500
20
0.0000
30
0.0
11
273.7000
21
0.0000
31
0.0
0
LINE
8
Edge_Cuts
10
0.0000
20
3.0000
30
0.0
11
0.0000
21
174.4000
31
0.0
0
ARC
8
Edge_Cuts
10
3.0000
20
3.0000
30
0.0
40
3.0000
50
90.0000
51
180.0000
0
ARC
8
Edge_Cuts
10
273.7000
20
3.0000
30
0.0
40
3.0000
50
0.0000
51
90.0000
0
ARC
8
Edge_Cuts
10
273.7000
20
174.4000
30
0.0
40
3.0000
50
270.0000
51
360.0000
0
ARC
8
Edge_Cuts
10
3.0000
20
174.4000
30
0.0
40
3.0000
50
180.0000
51
270.0000
0
TEXT
8
USB_Area
10
138.3500
20
-15.0000
30
0.0
40
1.5000
1
USB-C TAB
72
1
11
138.3500
21
-15.0000
31
0.0
0
CIRCLE
8
Mounting
10
4.0000
20
4.0000
30
0.0
40
1.6000
0
CIRCLE
8
Mounting
10
138.3500
20
4.0000
30
0.0
40
1.6000
0
CIRCLE
8
Mounting
10
272.7000
20
4.0000
30
0.0
40
1.6000
0
CIRCLE
8
Mounting
10
4.0000
20
173.4000
30
0.0
40
1.6000
0
CIRCLE
8
Mounting
10
138.3500
20
173.4000
30
0.0
40
1.6000
0
CIRCLE
8
Mounting
10
272.7000
20
173.4000
30
0.0
40
1.6000
0
CIRCLE
8
Mounting
10
183.3500
20
173.4000
30
0.0
40
1.6000
0
LINE
8
Cmts_User
10
12.5250
20
39.0500
30
0.0
11
16.5250
21
39.0500
31
0.0
0
LINE
8
Cmts_User
10
14.5250
20
37.0500
30
0.0
11
14.5250
21
41.0500
31
0.0
0
CIRCLE
8
Cmts_User
10
14.5250
20
39.0500
30
0.0
40
2.0000
0
TEXT
8
Cmts_User
10
14.5250
20
34.0500
30
0.0
40
1.5000
1
MODE
72
1
11
14.5250
21
34.0500
31
0.0
0
LINE
8
Cmts_User
10
31.5750
20
29.5250
30
0.0
11
35.5750
21
29.5250
31
0.0
0
LINE
8
Cmts_User
10
33.5750
20
27.5250
30
0.0
11
33.5750
21
31.5250
31
0.0
0
CIRCLE
8
Cmts_User
10
33.5750
20
29.5250
30
0.0
40
2.0000
0
TEXT
8
Cmts_User
10
33.5750
20
24.5250
30
0.0
40
1.5000
1
D2
72
1
11
33.5750
21
24.5250
31
0.0
0
LINE
8
Cmts_User
10
50.6250
20
29.5250
30
0.0
11
54.6250
21
29.5250
31
0.0
0
LINE
8
Cmts_User
10
52.6250
20
27.5250
30
0.0
11
52.6250
21
31.5250
31
0.0
0
CIRCLE
8
Cmts_User
10
52.6250
20
29.5250
30
0.0
40
2.0000
0
TEXT
8
Cmts_User
10
52.6250
20
24.5250
30
0.0
40
1.5000
1
DA
72
1
11
52.6250
21
24.5250
31
0.0
0
LINE
8
Cmts_User
10
69.6750
20
29.5250
30
0.0
11
73.6750
21
29.5250
31
0.0
0
LINE
8
Cmts_User
10
71.6750
20
27.5250
30
0.0
11
71.6750
21
31.5250
31
0.0
0
CIRCLE
8
Cmts_User
10
71.6750
20
29.5250
30
0.0
40
2.0000
0
TEXT
8
Cmts_User
10
71.6750
20
24.5250
30
0.0
40
1.5000
1
DK
72
1
11
71.6750
21
24.5250
31
0.0
0
LINE
8
Cmts_User
10
88.7250
20
29.5250
30
0.0
11
92.7250
21
29.5250
31
0.0
0
LINE
8
Cmts_User
10
90.7250
20
27.5250
30
0.0
11
90.7250
21
31.5250
31
0.0
0
CIRCLE
8
Cmts_User
10
90.7250
20
29.5250
30
0.0
40
2.0000
0
TEXT
8
Cmts_User
10
90.7250
20
24.5250
30
0.0
40
1.5000
1
DQ
72
1
11
90.7250
21
24.5250
31
0.0
0
LINE
8
Cmts_User
10
107.7750
20
29.5250
30
0.0
11
111.7750
21
29.5250
31
0.0
0
LINE
8
Cmts_User
10
109.7750
20
27.5250
30
0.0
11
109.7750
21
31.5250
31
0.0
0
CIRCLE
8
Cmts_User
10
109.7750
20
29.5250
30
0.0
40
2.0000
0
TEXT
8
Cmts_User
10
109.7750
20
24.5250
30
0.0
40
1.5000
1
DJ
72
1
11
109.7750
21
24.5250
31
0.0
0
LINE
8
Cmts_User
10
126.8250
20
29.5250
30
0.0
11
130.8250
21
29.5250
31
0.0
0
LINE
8
Cmts_User
10
128.8250
20
27.5250
30
0.0
11
128.8250
21
31.5250
31
0.0
0
CIRCLE
8
Cmts_User
10
128.8250
20
29.5250
30
0.0
40
2.0000
0
TEXT
8
Cmts_User
10
128.8250
20
24.5250
30
0.0
40
1.5000
1
DT
72
1
11
128.8250
21
24.5250
31
0.0
0
LINE
8
Cmts_User
10
145.8750
20
29.5250
30
0.0
11
149.8750
21
29.5250
31
0.0
0
LINE
8
Cmts_User
10
147.8750
20
27.5250
30
0.0
11
147.8750
21
31.5250
31
0.0
0
CIRCLE
8
Cmts_User
10
147.8750
20
29.5250
30
0.0
40
2.0000
0
TEXT
8
Cmts_User
10
147.8750
20
24.5250
30
0.0
40
1.5000
1
D9
72
1
11
147.8750
21
24.5250
31
0.0
0
LINE
8
Cmts_User
10
164.9250
20
29.5250
30
0.0
11
168.9250
21
29.5250
31
0.0
0
LINE
8
Cmts_User
10
166.9250
20
27.5250
30
0.0
11
166.9250
21
31.5250
31
0.0
0
CIRCLE
8
Cmts_User
10
166.9250
20
29.5250
30
0.0
40
2.0000
0
TEXT
8
Cmts_User
10
166.9250
20
24.5250
30
0.0
40
1.5000
1
D8
72
1
11
166.9250
21
24.5250
31
0.0
0
LINE
8
Cmts_User
10
183.9750
20
29.5250
30
0.0
11
187.9750
21
29.5250
31
0.0
0
LINE
8
Cmts_User
10
185.9750
20
27.5250
30
0.0
11
185.9750
21
31.5250
31
0.0
0
CIRCLE
8
Cmts_User
10
185.9750
20
29.5250
30
0.0
40
2.0000
0
TEXT
8
Cmts_User
10
185.9750
20
24.5250
30
0.0
40
1.5000
1
D7
72
1
11
185.9750
21
24.5250
31
0.0
0
LINE
8
Cmts_User
10
203.0250
20
29.5250
30
0.0
11
207.0250
21
29.5250
31
0.0
0
LINE
8
Cmts_User
10
205.0250
20
27.5250
30
0.0
11
205.0250
21
31.5250
31
0.0
0
CIRCLE
8
Cmts_User
10
205.0250
20
29.5250
30
0.0
40
2.0000
0
TEXT
8
Cmts_User
10
205.0250
20
24.5250
30
0.0
40
1.5000
1
D6
72
1
11
205.0250
21
24.5250
31
0.0
0
LINE
8
Cmts_User
10
222.0750
20
29.5250
30
0.0
11
226.0750
21
29.5250
31
0.0
0
LINE
8
Cmts_User
10
224.0750
20
27.5250
30
0.0
11
224.0750
21
31.5250
31
0.0
0
CIRCLE
8
Cmts_User
10
224.0750
20
29.5250
30
0.0
40
2.0000
0
TEXT
8
Cmts_User
10
224.0750
20
24.5250
30
0.0
40
1.5000
1
D5
72
1
11
224.0750
21
24.5250
31
0.0
0
LINE
8
Cmts_User
10
241.1250
20
29.5250
30
0.0
11
245.1250
21
29.5250
31
0.0
0
LINE
8
Cmts_User
10
243.1250
20
27.5250
30
0.0
11
243.1250
21
31.5250
31
0.0
0
CIRCLE
8
Cmts_User
10
243.1250
20
29.5250
30
0.0
40
2.0000
0
TEXT
8
Cmts_User
10
243.1250
20
24.5250
30
0.0
40
1.5000
1
D4
72
1
11
243.1250
21
24.5250
31
0.0
0
LINE
8
Cmts_User
10
260.1750
20
29.5250
30
0.0
11
264.1750
21
29.5250
31
0.0
0
LINE
8
Cmts_User
10
262.1750
20
27.5250
30
0.0
11
262.1750
21
31.5250
31
0.0
0
CIRCLE
8
Cmts_User
10
262.1750
20
29.5250
30
0.0
40
2.0000
0
TEXT
8
Cmts_User
10
262.1750
20
24.5250
30
0.0
40
1.5000
1
D3
72
1
11
262.1750
21
24.5250
31
0.0
0
LINE
8
Cmts_User
10
31.5750
20
48.5750
30
0.0
11
35.5750
21
48.5750
31
0.0
0
LINE
8
Cmts_User
10
33.5750
20
46.5750
30
0.0
11
33.5750
21
50.5750
31
0.0
0
CIRCLE
8
Cmts_User
10
33.5750
20
48.5750
30
0.0
40
2.0000
0
TEXT
8
Cmts_User
10
33.5750
20
43.5750
30
0.0
40
1.5000
1
D2
72
1
11
33.5750
21
43.5750
31
0.0
0
LINE
8
Cmts_User
10
50.6250
20
48.5750
30
0.0
11
54.6250
21
48.5750
31
0.0
0
LINE
8
Cmts_User
10
52.6250
20
46.5750
30
0.0
11
52.6250
21
50.5750
31
0.0
0
CIRCLE
8
Cmts_User
10
52.6250
20
48.5750
30
0.0
40
2.0000
0
TEXT
8
Cmts_User
10
52.6250
20
43.5750
30
0.0
40
1.5000
1
DA
72
1
11
52.6250
21
43.5750
31
0.0
0
LINE
8
Cmts_User
10
69.6750
20
48.5750
30
0.0
11
73.6750
21
48.5750
31
0.0
0
LINE
8
Cmts_User
10
71.6750
20
46.5750
30
0.0
11
71.6750
21
50.5750
31
0.0
0
CIRCLE
8
Cmts_User
10
71.6750
20
48.5750
30
0.0
40
2.0000
0
TEXT
8
Cmts_User
10
71.6750
20
43.5750
30
0.0
40
1.5000
1
DK
72
1
11
71.6750
21
43.5750
31
0.0
0
LINE
8
Cmts_User
10
88.7250
20
48.5750
30
0.0
11
92.7250
21
48.5750
31
0.0
0
LINE
8
Cmts_User
10
90.7250
20
46.5750
30
0.0
11
90.7250
21
50.5750
31
0.0
0
CIRCLE
8
Cmts_User
10
90.7250
20
48.5750
30
0.0
40
2.0000
0
TEXT
8
Cmts_User
10
90.7250
20
43.5750
30
0.0
40
1.5000
1
DQ
72
1
11
90.7250
21
43.5750
31
0.0
0
LINE
8
Cmts_User
10
107.7750
20
48.5750
30
0.0
11
111.7750
21
48.5750
31
0.0
0
LINE
8
Cmts_User
10
109.7750
20
46.5750
30
0.0
11
109.7750
21
50.5750
31
0.0
0
CIRCLE
8
Cmts_User
10
109.7750
20
48.5750
30
0.0
40
2.0000
0
TEXT
8
Cmts_User
10
109.7750
20
43.5750
30
0.0
40
1.5000
1
DJ
72
1
11
109.7750
21
43.5750
31
0.0
0
LINE
8
Cmts_User
10
126.8250
20
48.5750
30
0.0
11
130.8250
21
48.5750
31
0.0
0
LINE
8
Cmts_User
10
128.8250
20
46.5750
30
0.0
11
128.8250
21
50.5750
31
0.0
0
CIRCLE
8
Cmts_User
10
128.8250
20
48.5750
30
0.0
40
2.0000
0
TEXT
8
Cmts_User
10
128.8250
20
43.5750
30
0.0
40
1.5000
1
DT
72
1
11
128.8250
21
43.5750
31
0.0
0
LINE
8
Cmts_User
10
145.8750
20
48.5750
30
0.0
11
149.8750
21
48.5750
31
0.0
0
LINE
8
Cmts_User
10
147.8750
20
46.5750
30
0.0
11
147.8750
21
50.5750
31
0.0
0
CIRCLE
8
Cmts_User
10
147.8750
20
48.5750
30
0.0
40
2.0000
0
TEXT
8
Cmts_User
10
147.8750
20
43.5750
30
0.0
40
1.5000
1
D9
72
1
11
147.8750
21
43.5750
31
0.0
0
LINE
8
Cmts_User
10
164.9250
20
48.5750
30
0.0
11
168.9250
21
48.5750
31
0.0
0
LINE
8
Cmts_User
10
166.9250
20
46.5750
30
0.0
11
166.9250
21
50.5750
31
0.0
0
CIRCLE
8
Cmts_User
10
166.9250
20
48.5750
30
0.0
40
2.0000
0
TEXT
8
Cmts_User
10
166.9250
20
43.5750
30
0.0
40
1.5000
1
D8
72
1
11
166.9250
21
43.5750
31
0.0
0
LINE
8
Cmts_User
10
183.9750
20
48.5750
30
0.0
11
187.9750
21
48.5750
31
0.0
0
LINE
8
Cmts_User
10
185.9750
20
46.5750
30
0.0
11
185.9750
21
50.5750
31
0.0
0
CIRCLE
8
Cmts_User
10
185.9750
20
48.5750
30
0.0
40
2.0000
0
TEXT
8
Cmts_User
10
185.9750
20
43.5750
30
0.0
40
1.5000
1
D7
72
1
11
185.9750
21
43.5750
31
0.0
0
LINE
8
Cmts_User
10
203.0250
20
48.5750
30
0.0
11
207.0250
21
48.5750
31
0.0
0
LINE
8
Cmts_User
10
205.0250
20
46.5750
30
0.0
11
205.0250
21
50.5750
31
0.0
0
CIRCLE
8
Cmts_User
10
205.0250
20
48.5750
30
0.0
40
2.0000
0
TEXT
8
Cmts_User
10
205.0250
20
43.5750
30
0.0
40
1.5000
1
D6
72
1
11
205.0250
21
43.5750
31
0.0
0
LINE
8
Cmts_User
10
222.0750
20
48.5750
30
0.0
11
226.0750
21
48.5750
31
0.0
0
LINE
8
Cmts_User
10
224.0750
20
46.5750
30
0.0
11
224.0750
21
50.5750
31
0.0
0
CIRCLE
8
Cmts_User
10
224.0750
20
48.5750
30
0.0
40
2.0000
0
TEXT
8
Cmts_User
10
224.0750
20
43.5750
30
0.0
40
1.5000
1
D5
72
1
11
224.0750
21
43.5750
31
0.0
0
LINE
8
Cmts_User
10
241.1250
20
48.5750
30
0.0
11
245.1250
21
48.5750
31
0.0
0
LINE
8
Cmts_User
10
243.1250
20
46.5750
30
0.0
11
243.1250
21
50.5750
31
0.0
0
CIRCLE
8
Cmts_User
10
243.1250
20
48.5750
30
0.0
40
2.0000
0
TEXT
8
Cmts_User
10
243.1250
20
43.5750
30
0.0
40
1.5000
1
D4
72
1
11
243.1250
21
43.5750
31
0.0
0
LINE
8
Cmts_User
10
260.1750
20
48.5750
30
0.0
11
264.1750
21
48.5750
31
0.0
0
LINE
8
Cmts_User
10
262.1750
20
46.5750
30
0.0
11
262.1750
21
50.5750
31
0.0
0
CIRCLE
8
Cmts_User
10
262.1750
20
48.5750
30
0.0
40
2.0000
0
TEXT
8
Cmts_User
10
262.1750
20
43.5750
30
0.0
40
1.5000
1
D3
72
1
11
262.1750
21
43.5750
31
0.0
0
LINE
8
Cmts_User
10
12.5250
20
77.1500
30
0.0
11
16.5250
21
77.1500
31
0.0
0
LINE
8
Cmts_User
10
14.5250
20
75.1500
30
0.0
11
14.5250
21
79.1500
31
0.0
0
CIRCLE
8
Cmts_User
10
14.5250
20
77.1500
30
0.0
40
2.0000
0
TEXT
8
Cmts_User
10
14.5250
20
72.1500
30
0.0
40
1.5000
1
PASS
72
1
11
14.5250
21
72.1500
31
0.0
0
LINE
8
Cmts_User
10
31.5750
20
67.6250
30
0.0
11
35.5750
21
67.6250
31
0.0
0
LINE
8
Cmts_User
10
33.5750
20
65.6250
30
0.0
11
33.5750
21
69.6250
31
0.0
0
CIRCLE
8
Cmts_User
10
33.5750
20
67.6250
30
0.0
40
2.0000
0
TEXT
8
Cmts_User
10
33.5750
20
62.6250
30
0.0
40
1.5000
1
S2
72
1
11
33.5750
21
62.6250
31
0.0
0
LINE
8
Cmts_User
10
50.6250
20
67.6250
30
0.0
11
54.6250
21
67.6250
31
0.0
0
LINE
8
Cmts_User
10
52.6250
20
65.6250
30
0.0
11
52.6250
21
69.6250
31
0.0
0
CIRCLE
8
Cmts_User
10
52.6250
20
67.6250
30
0.0
40
2.0000
0
TEXT
8
Cmts_User
10
52.6250
20
62.6250
30
0.0
40
1.5000
1
SA
72
1
11
52.6250
21
62.6250
31
0.0
0
LINE
8
Cmts_User
10
69.6750
20
67.6250
30
0.0
11
73.6750
21
67.6250
31
0.0
0
LINE
8
Cmts_User
10
71.6750
20
65.6250
30
0.0
11
71.6750
21
69.6250
31
0.0
0
CIRCLE
8
Cmts_User
10
71.6750
20
67.6250
30
0.0
40
2.0000
0
TEXT
8
Cmts_User
10
71.6750
20
62.6250
30
0.0
40
1.5000
1
SK
72
1
11
71.6750
21
62.6250
31
0.0
0
LINE
8
Cmts_User
10
88.7250
20
67.6250
30
0.0
11
92.7250
21
67.6250
31
0.0
0
LINE
8
Cmts_User
10
90.7250
20
65.6250
30
0.0
11
90.7250
21
69.6250
31
0.0
0
CIRCLE
8
Cmts_User
10
90.7250
20
67.6250
30
0.0
40
2.0000
0
TEXT
8
Cmts_User
10
90.7250
20
62.6250
30
0.0
40
1.5000
1
SQ
72
1
11
90.7250
21
62.6250
31
0.0
0
LINE
8
Cmts_User
10
107.7750
20
67.6250
30
0.0
11
111.7750
21
67.6250
31
0.0
0
LINE
8
Cmts_User
10
109.7750
20
65.6250
30
0.0
11
109.7750
21
69.6250
31
0.0
0
CIRCLE
8
Cmts_User
10
109.7750
20
67.6250
30
0.0
40
2.0000
0
TEXT
8
Cmts_User
10
109.7750
20
62.6250
30
0.0
40
1.5000
1
SJ
72
1
11
109.7750
21
62.6250
31
0.0
0
LINE
8
Cmts_User
10
126.8250
20
67.6250
30
0.0
11
130.8250
21
67.6250
31
0.0
0
LINE
8
Cmts_User
10
128.8250
20
65.6250
30
0.0
11
128.8250
21
69.6250
31
0.0
0
CIRCLE
8
Cmts_User
10
128.8250
20
67.6250
30
0.0
40
2.0000
0
TEXT
8
Cmts_User
10
128.8250
20
62.6250
30
0.0
40
1.5000
1
ST
72
1
11
128.8250
21
62.6250
31
0.0
0
LINE
8
Cmts_User
10
145.8750
20
67.6250
30
0.0
11
149.8750
21
67.6250
31
0.0
0
LINE
8
Cmts_User
10
147.8750
20
65.6250
30
0.0
11
147.8750
21
69.6250
31
0.0
0
CIRCLE
8
Cmts_User
10
147.8750
20
67.6250
30
0.0
40
2.0000
0
TEXT
8
Cmts_User
10
147.8750
20
62.6250
30
0.0
40
1.5000
1
S9
72
1
11
147.8750
21
62.6250
31
0.0
0
LINE
8
Cmts_User
10
164.9250
20
67.6250
30
0.0
11
168.9250
21
67.6250
31
0.0
0
LINE
8
Cmts_User
10
166.9250
20
65.6250
30
0.0
11
166.9250
21
69.6250
31
0.0
0
CIRCLE
8
Cmts_User
10
166.9250
20
67.6250
30
0.0
40
2.0000
0
TEXT
8
Cmts_User
10
166.9250
20
62.6250
30
0.0
40
1.5000
1
S8
72
1
11
166.9250
21
62.6250
31
0.0
0
LINE
8
Cmts_User
10
183.9750
20
67.6250
30
0.0
11
187.9750
21
67.6250
31
0.0
0
LINE
8
Cmts_User
10
185.9750
20
65.6250
30
0.0
11
185.9750
21
69.6250
31
0.0
0
CIRCLE
8
Cmts_User
10
185.9750
20
67.6250
30
0.0
40
2.0000
0
TEXT
8
Cmts_User
10
185.9750
20
62.6250
30
0.0
40
1.5000
1
S7
72
1
11
185.9750
21
62.6250
31
0.0
0
LINE
8
Cmts_User
10
203.0250
20
67.6250
30
0.0
11
207.0250
21
67.6250
31
0.0
0
LINE
8
Cmts_User
10
205.0250
20
65.6250
30
0.0
11
205.0250
21
69.6250
31
0.0
0
CIRCLE
8
Cmts_User
10
205.0250
20
67.6250
30
0.0
40
2.0000
0
TEXT
8
Cmts_User
10
205.0250
20
62.6250
30
0.0
40
1.5000
1
S6
72
1
11
205.0250
21
62.6250
31
0.0
0
LINE
8
Cmts_User
10
222.0750
20
67.6250
30
0.0
11
226.0750
21
67.6250
31
0.0
0
LINE
8
Cmts_User
10
224.0750
20
65.6250
30
0.0
11
224.0750
21
69.6250
31
0.0
0
CIRCLE
8
Cmts_User
10
224.0750
20
67.6250
30
0.0
40
2.0000
0
TEXT
8
Cmts_User
10
224.0750
20
62.6250
30
0.0
40
1.5000
1
S5
72
1
11
224.0750
21
62.6250
31
0.0
0
LINE
8
Cmts_User
10
241.1250
20
67.6250
30
0.0
11
245.1250
21
67.6250
31
0.0
0
LINE
8
Cmts_User
10
243.1250
20
65.6250
30
0.0
11
243.1250
21
69.6250
31
0.0
0
CIRCLE
8
Cmts_User
10
243.1250
20
67.6250
30
0.0
40
2.0000
0
TEXT
8
Cmts_User
10
243.1250
20
62.6250
30
0.0
40
1.5000
1
S4
72
1
11
243.1250
21
62.6250
31
0.0
0
LINE
8
Cmts_User
10
260.1750
20
67.6250
30
0.0
11
264.1750
21
67.6250
31
0.0
0
LINE
8
Cmts_User
10
262.1750
20
65.6250
30
0.0
11
262.1750
21
69.6250
31
0.0
0
CIRCLE
8
Cmts_User
10
262.1750
20
67.6250
30
0.0
40
2.0000
0
TEXT
8
Cmts_User
10
262.1750
20
62.6250
30
0.0
40
1.5000
1
S3
72
1
11
262.1750
21
62.6250
31
0.0
0
LINE
8
Cmts_User
10
31.5750
20
86.6750
30
0.0
11
35.5750
21
86.6750
31
0.0
0
LINE
8
Cmts_User
10
33.5750
20
84.6750
30
0.0
11
33.5750
21
88.6750
31
0.0
0
CIRCLE
8
Cmts_User
10
33.5750
20
86.6750
30
0.0
40
2.0000
0
TEXT
8
Cmts_User
10
33.5750
20
81.6750
30
0.0
40
1.5000
1
S2
72
1
11
33.5750
21
81.6750
31
0.0
0
LINE
8
Cmts_User
10
50.6250
20
86.6750
30
0.0
11
54.6250
21
86.6750
31
0.0
0
LINE
8
Cmts_User
10
52.6250
20
84.6750
30
0.0
11
52.6250
21
88.6750
31
0.0
0
CIRCLE
8
Cmts_User
10
52.6250
20
86.6750
30
0.0
40
2.0000
0
TEXT
8
Cmts_User
10
52.6250
20
81.6750
30
0.0
40
1.5000
1
SA
72
1
11
52.6250
21
81.6750
31
0.0
0
LINE
8
Cmts_User
10
69.6750
20
86.6750
30
0.0
11
73.6750
21
86.6750
31
0.0
0
LINE
8
Cmts_User
10
71.6750
20
84.6750
30
0.0
11
71.6750
21
88.6750
31
0.0
0
CIRCLE
8
Cmts_User
10
71.6750
20
86.6750
30
0.0
40
2.0000
0
TEXT
8
Cmts_User
10
71.6750
20
81.6750
30
0.0
40
1.5000
1
SK
72
1
11
71.6750
21
81.6750
31
0.0
0
LINE
8
Cmts_User
10
88.7250
20
86.6750
30
0.0
11
92.7250
21
86.6750
31
0.0
0
LINE
8
Cmts_User
10
90.7250
20
84.6750
30
0.0
11
90.7250
21
88.6750
31
0.0
0
CIRCLE
8
Cmts_User
10
90.7250
20
86.6750
30
0.0
40
2.0000
0
TEXT
8
Cmts_User
10
90.7250
20
81.6750
30
0.0
40
1.5000
1
SQ
72
1
11
90.7250
21
81.6750
31
0.0
0
LINE
8
Cmts_User
10
107.7750
20
86.6750
30
0.0
11
111.7750
21
86.6750
31
0.0
0
LINE
8
Cmts_User
10
109.7750
20
84.6750
30
0.0
11
109.7750
21
88.6750
31
0.0
0
CIRCLE
8
Cmts_User
10
109.7750
20
86.6750
30
0.0
40
2.0000
0
TEXT
8
Cmts_User
10
109.7750
20
81.6750
30
0.0
40
1.5000
1
SJ
72
1
11
109.7750
21
81.6750
31
0.0
0
LINE
8
Cmts_User
10
126.8250
20
86.6750
30
0.0
11
130.8250
21
86.6750
31
0.0
0
LINE
8
Cmts_User
10
128.8250
20
84.6750
30
0.0
11
128.8250
21
88.6750
31
0.0
0
CIRCLE
8
Cmts_User
10
128.8250
20
86.6750
30
0.0
40
2.0000
0
TEXT
8
Cmts_User
10
128.8250
20
81.6750
30
0.0
40
1.5000
1
ST
72
1
11
128.8250
21
81.6750
31
0.0
0
LINE
8
Cmts_User
10
145.8750
20
86.6750
30
0.0
11
149.8750
21
86.6750
31
0.0
0
LINE
8
Cmts_User
10
147.8750
20
84.6750
30
0.0
11
147.8750
21
88.6750
31
0.0
0
CIRCLE
8
Cmts_User
10
147.8750
20
86.6750
30
0.0
40
2.0000
0
TEXT
8
Cmts_User
10
147.8750
20
81.6750
30
0.0
40
1.5000
1
S9
72
1
11
147.8750
21
81.6750
31
0.0
0
LINE
8
Cmts_User
10
164.9250
20
86.6750
30
0.0
11
168.9250
21
86.6750
31
0.0
0
LINE
8
Cmts_User
10
166.9250
20
84.6750
30
0.0
11
166.9250
21
88.6750
31
0.0
0
CIRCLE
8
Cmts_User
10
166.9250
20
86.6750
30
0.0
40
2.0000
0
TEXT
8
Cmts_User
10
166.9250
20
81.6750
30
0.0
40
1.5000
1
S8
72
1
11
166.9250
21
81.6750
31
0.0
0
LINE
8
Cmts_User
10
183.9750
20
86.6750
30
0.0
11
187.9750
21
86.6750
31
0.0
0
LINE
8
Cmts_User
10
185.9750
20
84.6750
30
0.0
11
185.9750
21
88.6750
31
0.0
0
CIRCLE
8
Cmts_User
10
185.9750
20
86.6750
30
0.0
40
2.0000
0
TEXT
8
Cmts_User
10
185.9750
20
81.6750
30
0.0
40
1.5000
1
S7
72
1
11
185.9750
21
81.6750
31
0.0
0
LINE
8
Cmts_User
10
203.0250
20
86.6750
30
0.0
11
207.0250
21
86.6750
31
0.0
0
LINE
8
Cmts_User
10
205.0250
20
84.6750
30
0.0
11
205.0250
21
88.6750
31
0.0
0
CIRCLE
8
Cmts_User
10
205.0250
20
86.6750
30
0.0
40
2.0000
0
TEXT
8
Cmts_User
10
205.0250
20
81.6750
30
0.0
40
1.5000
1
S6
72
1
11
205.0250
21
81.6750
31
0.0
0
LINE
8
Cmts_User
10
222.0750
20
86.6750
30
0.0
11
226.0750
21
86.6750
31
0.0
0
LINE
8
Cmts_User
10
224.0750
20
84.6750
30
0.0
11
224.0750
21
88.6750
31
0.0
0
CIRCLE
8
Cmts_User
10
224.0750
20
86.6750
30
0.0
40
2.0000
0
TEXT
8
Cmts_User
10
224.0750
20
81.6750
30
0.0
40
1.5000
1
S5
72
1
11
224.0750
21
81.6750
31
0.0
0
LINE
8
Cmts_User
10
241.1250
20
86.6750
30
0.0
11
245.1250
21
86.6750
31
0.0
0
LINE
8
Cmts_User
10
243.1250
20
84.6750
30
0.0
11
243.1250
21
88.6750
31
0.0
0
CIRCLE
8
Cmts_User
10
243.1250
20
86.6750
30
0.0
40
2.0000
0
TEXT
8
Cmts_User
10
243.1250
20
81.6750
30
0.0
40
1.5000
1
S4
72
1
11
243.1250
21
81.6750
31
0.0
0
LINE
8
Cmts_User
10
260.1750
20
86.6750
30
0.0
11
264.1750
21
86.6750
31
0.0
0
LINE
8
Cmts_User
10
262.1750
20
84.6750
30
0.0
11
262.1750
21
88.6750
31
0.0
0
CIRCLE
8
Cmts_User
10
262.1750
20
86.6750
30
0.0
40
2.0000
0
TEXT
8
Cmts_User
10
262.1750
20
81.6750
30
0.0
40
1.5000
1
S3
72
1
11
262.1750
21
81.6750
31
0.0
0
LINE
8
Cmts_User
10
12.5250
20
115.2500
30
0.0
11
16.5250
21
115.2500
31
0.0
0
LINE
8
Cmts_User
10
14.5250
20
113.2500
30
0.0
11
14.5250
21
117.2500
31
0.0
0
CIRCLE
8
Cmts_User
10
14.5250
20
115.2500
30
0.0
40
2.0000
0
TEXT
8
Cmts_User
10
14.5250
20
110.2500
30
0.0
40
1.5000
1
PLAY
72
1
11
14.5250
21
110.2500
31
0.0
0
LINE
8
Cmts_User
10
31.5750
20
105.7250
30
0.0
11
35.5750
21
105.7250
31
0.0
0
LINE
8
Cmts_User
10
33.5750
20
103.7250
30
0.0
11
33.5750
21
107.7250
31
0.0
0
CIRCLE
8
Cmts_User
10
33.5750
20
105.7250
30
0.0
40
2.0000
0
TEXT
8
Cmts_User
10
33.5750
20
100.7250
30
0.0
40
1.5000
1
H2
72
1
11
33.5750
21
100.7250
31
0.0
0
LINE
8
Cmts_User
10
50.6250
20
105.7250
30
0.0
11
54.6250
21
105.7250
31
0.0
0
LINE
8
Cmts_User
10
52.6250
20
103.7250
30
0.0
11
52.6250
21
107.7250
31
0.0
0
CIRCLE
8
Cmts_User
10
52.6250
20
105.7250
30
0.0
40
2.0000
0
TEXT
8
Cmts_User
10
52.6250
20
100.7250
30
0.0
40
1.5000
1
HA
72
1
11
52.6250
21
100.7250
31
0.0
0
LINE
8
Cmts_User
10
69.6750
20
105.7250
30
0.0
11
73.6750
21
105.7250
31
0.0
0
LINE
8
Cmts_User
10
71.6750
20
103.7250
30
0.0
11
71.6750
21
107.7250
31
0.0
0
CIRCLE
8
Cmts_User
10
71.6750
20
105.7250
30
0.0
40
2.0000
0
TEXT
8
Cmts_User
10
71.6750
20
100.7250
30
0.0
40
1.5000
1
HK
72
1
11
71.6750
21
100.7250
31
0.0
0
LINE
8
Cmts_User
10
88.7250
20
105.7250
30
0.0
11
92.7250
21
105.7250
31
0.0
0
LINE
8
Cmts_User
10
90.7250
20
103.7250
30
0.0
11
90.7250
21
107.7250
31
0.0
0
CIRCLE
8
Cmts_User
10
90.7250
20
105.7250
30
0.0
40
2.0000
0
TEXT
8
Cmts_User
10
90.7250
20
100.7250
30
0.0
40
1.5000
1
HQ
72
1
11
90.7250
21
100.7250
31
0.0
0
LINE
8
Cmts_User
10
107.7750
20
105.7250
30
0.0
11
111.7750
21
105.7250
31
0.0
0
LINE
8
Cmts_User
10
109.7750
20
103.7250
30
0.0
11
109.7750
21
107.7250
31
0.0
0
CIRCLE
8
Cmts_User
10
109.7750
20
105.7250
30
0.0
40
2.0000
0
TEXT
8
Cmts_User
10
109.7750
20
100.7250
30
0.0
40
1.5000
1
HJ
72
1
11
109.7750
21
100.7250
31
0.0
0
LINE
8
Cmts_User
10
126.8250
20
105.7250
30
0.0
11
130.8250
21
105.7250
31
0.0
0
LINE
8
Cmts_User
10
128.8250
20
103.7250
30
0.0
11
128.8250
21
107.7250
31
0.0
0
CIRCLE
8
Cmts_User
10
128.8250
20
105.7250
30
0.0
40
2.0000
0
TEXT
8
Cmts_User
10
128.8250
20
100.7250
30
0.0
40
1.5000
1
HT
72
1
11
128.8250
21
100.7250
31
0.0
0
LINE
8
Cmts_User
10
145.8750
20
105.7250
30
0.0
11
149.8750
21
105.7250
31
0.0
0
LINE
8
Cmts_User
10
147.8750
20
103.7250
30
0.0
11
147.8750
21
107.7250
31
0.0
0
CIRCLE
8
Cmts_User
10
147.8750
20
105.7250
30
0.0
40
2.0000
0
TEXT
8
Cmts_User
10
147.8750
20
100.7250
30
0.0
40
1.5000
1
H9
72
1
11
147.8750
21
100.7250
31
0.0
0
LINE
8
Cmts_User
10
164.9250
20
105.7250
30
0.0
11
168.9250
21
105.7250
31
0.0
0
LINE
8
Cmts_User
10
166.9250
20
103.7250
30
0.0
11
166.9250
21
107.7250
31
0.0
0
CIRCLE
8
Cmts_User
10
166.9250
20
105.7250
30
0.0
40
2.0000
0
TEXT
8
Cmts_User
10
166.9250
20
100.7250
30
0.0
40
1.5000
1
H8
72
1
11
166.9250
21
100.7250
31
0.0
0
LINE
8
Cmts_User
10
183.9750
20
105.7250
30
0.0
11
187.9750
21
105.7250
31
0.0
0
LINE
8
Cmts_User
10
185.9750
20
103.7250
30
0.0
11
185.9750
21
107.7250
31
0.0
0
CIRCLE
8
Cmts_User
10
185.9750
20
105.7250
30
0.0
40
2.0000
0
TEXT
8
Cmts_User
10
185.9750
20
100.7250
30
0.0
40
1.5000
1
H7
72
1
11
185.9750
21
100.7250
31
0.0
0
LINE
8
Cmts_User
10
203.0250
20
105.7250
30
0.0
11
207.0250
21
105.7250
31
0.0
0
LINE
8
Cmts_User
10
205.0250
20
103.7250
30
0.0
11
205.0250
21
107.7250
31
0.0
0
CIRCLE
8
Cmts_User
10
205.0250
20
105.7250
30
0.0
40
2.0000
0
TEXT
8
Cmts_User
10
205.0250
20
100.7250
30
0.0
40
1.5000
1
H6
72
1
11
205.0250
21
100.7250
31
0.0
0
LINE
8
Cmts_User
10
222.0750
20
105.7250
30
0.0
11
226.0750
21
105.7250
31
0.0
0
LINE
8
Cmts_User
10
224.0750
20
103.7250
30
0.0
11
224.0750
21
107.7250
31
0.0
0
CIRCLE
8
Cmts_User
10
224.0750
20
105.7250
30
0.0
40
2.0000
0
TEXT
8
Cmts_User
10
224.0750
20
100.7250
30
0.0
40
1.5000
1
H5
72
1
11
224.0750
21
100.7250
31
0.0
0
LINE
8
Cmts_User
10
241.1250
20
105.7250
30
0.0
11
245.1250
21
105.7250
31
0.0
0
LINE
8
Cmts_User
10
243.1250
20
103.7250
30
0.0
11
243.1250
21
107.7250
31
0.0
0
CIRCLE
8
Cmts_User
10
243.1250
20
105.7250
30
0.0
40
2.0000
0
TEXT
8
Cmts_User
10
243.1250
20
100.7250
30
0.0
40
1.5000
1
H4
72
1
11
243.1250
21
100.7250
31
0.0
0
LINE
8
Cmts_User
10
260.1750
20
105.7250
30
0.0
11
264.1750
21
105.7250
31
0.0
0
LINE
8
Cmts_User
10
262.1750
20
103.7250
30
0.0
11
262.1750
21
107.7250
31
0.0
0
CIRCLE
8
Cmts_User
10
262.1750
20
105.7250
30
0.0
40
2.0000
0
TEXT
8
Cmts_User
10
262.1750
20
100.7250
30
0.0
40
1.5000
1
H3
72
1
11
262.1750
21
100.7250
31
0.0
0
LINE
8
Cmts_User
10
31.5750
20
124.7750
30
0.0
11
35.5750
21
124.7750
31
0.0
0
LINE
8
Cmts_User
10
33.5750
20
122.7750
30
0.0
11
33.5750
21
126.7750
31
0.0
0
CIRCLE
8
Cmts_User
10
33.5750
20
124.7750
30
0.0
40
2.0000
0
TEXT
8
Cmts_User
10
33.5750
20
119.7750
30
0.0
40
1.5000
1
H2
72
1
11
33.5750
21
119.7750
31
0.0
0
LINE
8
Cmts_User
10
50.6250
20
124.7750
30
0.0
11
54.6250
21
124.7750
31
0.0
0
LINE
8
Cmts_User
10
52.6250
20
122.7750
30
0.0
11
52.6250
21
126.7750
31
0.0
0
CIRCLE
8
Cmts_User
10
52.6250
20
124.7750
30
0.0
40
2.0000
0
TEXT
8
Cmts_User
10
52.6250
20
119.7750
30
0.0
40
1.5000
1
HA
72
1
11
52.6250
21
119.7750
31
0.0
0
LINE
8
Cmts_User
10
69.6750
20
124.7750
30
0.0
11
73.6750
21
124.7750
31
0.0
0
LINE
8
Cmts_User
10
71.6750
20
122.7750
30
0.0
11
71.6750
21
126.7750
31
0.0
0
CIRCLE
8
Cmts_User
10
71.6750
20
124.7750
30
0.0
40
2.0000
0
TEXT
8
Cmts_User
10
71.6750
20
119.7750
30
0.0
40
1.5000
1
HK
72
1
11
71.6750
21
119.7750
31
0.0
0
LINE
8
Cmts_User
10
88.7250
20
124.7750
30
0.0
11
92.7250
21
124.7750
31
0.0
0
LINE
8
Cmts_User
10
90.7250
20
122.7750
30
0.0
11
90.7250
21
126.7750
31
0.0
0
CIRCLE
8
Cmts_User
10
90.7250
20
124.7750
30
0.0
40
2.0000
0
TEXT
8
Cmts_User
10
90.7250
20
119.7750
30
0.0
40
1.5000
1
HQ
72
1
11
90.7250
21
119.7750
31
0.0
0
LINE
8
Cmts_User
10
107.7750
20
124.7750
30
0.0
11
111.7750
21
124.7750
31
0.0
0
LINE
8
Cmts_User
10
109.7750
20
122.7750
30
0.0
11
109.7750
21
126.7750
31
0.0
0
CIRCLE
8
Cmts_User
10
109.7750
20
124.7750
30
0.0
40
2.0000
0
TEXT
8
Cmts_User
10
109.7750
20
119.7750
30
0.0
40
1.5000
1
HJ
72
1
11
109.7750
21
119.7750
31
0.0
0
LINE
8
Cmts_User
10
126.8250
20
124.7750
30
0.0
11
130.8250
21
124.7750
31
0.0
0
LINE
8
Cmts_User
10
128.8250
20
122.7750
30
0.0
11
128.8250
21
126.7750
31
0.0
0
CIRCLE
8
Cmts_User
10
128.8250
20
124.7750
30
0.0
40
2.0000
0
TEXT
8
Cmts_User
10
128.8250
20
119.7750
30
0.0
40
1.5000
1
HT
72
1
11
128.8250
21
119.7750
31
0.0
0
LINE
8
Cmts_User
10
145.8750
20
124.7750
30
0.0
11
149.8750
21
124.7750
31
0.0
0
LINE
8
Cmts_User
10
147.8750
20
122.7750
30
0.0
11
147.8750
21
126.7750
31
0.0
0
CIRCLE
8
Cmts_User
10
147.8750
20
124.7750
30
0.0
40
2.0000
0
TEXT
8
Cmts_User
10
147.8750
20
119.7750
30
0.0
40
1.5000
1
H9
72
1
11
147.8750
21
119.7750
31
0.0
0
LINE
8
Cmts_User
10
164.9250
20
124.7750
30
0.0
11
168.9250
21
124.7750
31
0.0
0
LINE
8
Cmts_User
10
166.9250
20
122.7750
30
0.0
11
166.9250
21
126.7750
31
0.0
0
CIRCLE
8
Cmts_User
10
166.9250
20
124.7750
30
0.0
40
2.0000
0
TEXT
8
Cmts_User
10
166.9250
20
119.7750
30
0.0
40
1.5000
1
H8
72
1
11
166.9250
21
119.7750
31
0.0
0
LINE
8
Cmts_User
10
183.9750
20
124.7750
30
0.0
11
187.9750
21
124.7750
31
0.0
0
LINE
8
Cmts_User
10
185.9750
20
122.7750
30
0.0
11
185.9750
21
126.7750
31
0.0
0
CIRCLE
8
Cmts_User
10
185.9750
20
124.7750
30
0.0
40
2.0000
0
TEXT
8
Cmts_User
10
185.9750
20
119.7750
30
0.0
40
1.5000
1
H7
72
1
11
185.9750
21
119.7750
31
0.0
0
LINE
8
Cmts_User
10
203.0250
20
124.7750
30
0.0
11
207.0250
21
124.7750
31
0.0
0
LINE
8
Cmts_User
10
205.0250
20
122.7750
30
0.0
11
205.0250
21
126.7750
31
0.0
0
CIRCLE
8
Cmts_User
10
205.0250
20
124.7750
30
0.0
40
2.0000
0
TEXT
8
Cmts_User
10
205.0250
20
119.7750
30
0.0
40
1.5000
1
H6
72
1
11
205.0250
21
119.7750
31
0.0
0
LINE
8
Cmts_User
10
222.0750
20
124.7750
30
0.0
11
226.0750
21
124.7750
31
0.0
0
LINE
8
Cmts_User
10
224.0750
20
122.7750
30
0.0
11
224.0750
21
126.7750
31
0.0
0
CIRCLE
8
Cmts_User
10
224.0750
20
124.7750
30
0.0
40
2.0000
0
TEXT
8
Cmts_User
10
224.0750
20
119.7750
30
0.0
40
1.5000
1
H5
72
1
11
224.0750
21
119.7750
31
0.0
0
LINE
8
Cmts_User
10
241.1250
20
124.7750
30
0.0
11
245.1250
21
124.7750
31
0.0
0
LINE
8
Cmts_User
10
243.1250
20
122.7750
30
0.0
11
243.1250
21
126.7750
31
0.0
0
CIRCLE
8
Cmts_User
10
243.1250
20
124.7750
30
0.0
40
2.0000
0
TEXT
8
Cmts_User
10
243.1250
20
119.7750
30
0.0
40
1.5000
1
H4
72
1
11
243.1250
21
119.7750
31
0.0
0
LINE
8
Cmts_User
10
260.1750
20
124.7750
30
0.0
11
264.1750
21
124.7750
31
0.0
0
LINE
8
Cmts_User
10
262.1750
20
122.7750
30
0.0
11
262.1750
21
126.7750
31
0.0
0
CIRCLE
8
Cmts_User
10
262.1750
20
124.7750
30
0.0
40
2.0000
0
TEXT
8
Cmts_User
10
262.1750
20
119.7750
30
0.0
40
1.5000
1
H3
72
1
11
262.1750
21
119.7750
31
0.0
0
LINE
8
Cmts_User
10
12.5250
20
143.8250
30
0.0
11
16.5250
21
143.8250
31
0.0
0
LINE
8
Cmts_User
10
14.5250
20
141.8250
30
0.0
11
14.5250
21
145.8250
31
0.0
0
CIRCLE
8
Cmts_User
10
14.5250
20
143.8250
30
0.0
40
2.0000
0
TEXT
8
Cmts_User
10
14.5250
20
138.8250
30
0.0
40
1.5000
1
BgJK
72
1
11
14.5250
21
138.8250
31
0.0
0
LINE
8
Cmts_User
10
31.5750
20
143.8250
30
0.0
11
35.5750
21
143.8250
31
0.0
0
LINE
8
Cmts_User
10
33.5750
20
141.8250
30
0.0
11
33.5750
21
145.8250
31
0.0
0
CIRCLE
8
Cmts_User
10
33.5750
20
143.8250
30
0.0
40
2.0000
0
TEXT
8
Cmts_User
10
33.5750
20
138.8250
30
0.0
40
1.5000
1
C2
72
1
11
33.5750
21
138.8250
31
0.0
0
LINE
8
Cmts_User
10
50.6250
20
143.8250
30
0.0
11
54.6250
21
143.8250
31
0.0
0
LINE
8
Cmts_User
10
52.6250
20
141.8250
30
0.0
11
52.6250
21
145.8250
31
0.0
0
CIRCLE
8
Cmts_User
10
52.6250
20
143.8250
30
0.0
40
2.0000
0
TEXT
8
Cmts_User
10
52.6250
20
138.8250
30
0.0
40
1.5000
1
CA
72
1
11
52.6250
21
138.8250
31
0.0
0
LINE
8
Cmts_User
10
69.6750
20
143.8250
30
0.0
11
73.6750
21
143.8250
31
0.0
0
LINE
8
Cmts_User
10
71.6750
20
141.8250
30
0.0
11
71.6750
21
145.8250
31
0.0
0
CIRCLE
8
Cmts_User
10
71.6750
20
143.8250
30
0.0
40
2.0000
0
TEXT
8
Cmts_User
10
71.6750
20
138.8250
30
0.0
40
1.5000
1
CK
72
1
11
71.6750
21
138.8250
31
0.0
0
LINE
8
Cmts_User
10
88.7250
20
143.8250
30
0.0
11
92.7250
21
143.8250
31
0.0
0
LINE
8
Cmts_User
10
90.7250
20
141.8250
30
0.0
11
90.7250
21
145.8250
31
0.0
0
CIRCLE
8
Cmts_User
10
90.7250
20
143.8250
30
0.0
40
2.0000
0
TEXT
8
Cmts_User
10
90.7250
20
138.8250
30
0.0
40
1.5000
1
CQ
72
1
11
90.7250
21
138.8250
31
0.0
0
LINE
8
Cmts_User
10
107.7750
20
143.8250
30
0.0
11
111.7750
21
143.8250
31
0.0
0
LINE
8
Cmts_User
10
109.7750
20
141.8250
30
0.0
11
109.7750
21
145.8250
31
0.0
0
CIRCLE
8
Cmts_User
10
109.7750
20
143.8250
30
0.0
40
2.0000
0
TEXT
8
Cmts_User
10
109.7750
20
138.8250
30
0.0
40
1.5000
1
CJ
72
1
11
109.7750
21
138.8250
31
0.0
0
LINE
8
Cmts_User
10
126.8250
20
143.8250
30
0.0
11
130.8250
21
143.8250
31
0.0
0
LINE
8
Cmts_User
10
128.8250
20
141.8250
30
0.0
11
128.8250
21
145.8250
31
0.0
0
CIRCLE
8
Cmts_User
10
128.8250
20
143.8250
30
0.0
40
2.0000
0
TEXT
8
Cmts_User
10
128.8250
20
138.8250
30
0.0
40
1.5000
1
CT
72
1
11
128.8250
21
138.8250
31
0.0
0
LINE
8
Cmts_User
10
145.8750
20
143.8250
30
0.0
11
149.8750
21
143.8250
31
0.0
0
LINE
8
Cmts_User
10
147.8750
20
141.8250
30
0.0
11
147.8750
21
145.8250
31
0.0
0
CIRCLE
8
Cmts_User
10
147.8750
20
143.8250
30
0.0
40
2.0000
0
TEXT
8
Cmts_User
10
147.8750
20
138.8250
30
0.0
40
1.5000
1
C9
72
1
11
147.8750
21
138.8250
31
0.0
0
LINE
8
Cmts_User
10
164.9250
20
143.8250
30
0.0
11
168.9250
21
143.8250
31
0.0
0
LINE
8
Cmts_User
10
166.9250
20
141.8250
30
0.0
11
166.9250
21
145.8250
31
0.0
0
CIRCLE
8
Cmts_User
10
166.9250
20
143.8250
30
0.0
40
2.0000
0
TEXT
8
Cmts_User
10
166.9250
20
138.8250
30
0.0
40
1.5000
1
C8
72
1
11
166.9250
21
138.8250
31
0.0
0
LINE
8
Cmts_User
10
183.9750
20
143.8250
30
0.0
11
187.9750
21
143.8250
31
0.0
0
LINE
8
Cmts_User
10
185.9750
20
141.8250
30
0.0
11
185.9750
21
145.8250
31
0.0
0
CIRCLE
8
Cmts_User
10
185.9750
20
143.8250
30
0.0
40
2.0000
0
TEXT
8
Cmts_User
10
185.9750
20
138.8250
30
0.0
40
1.5000
1
C7
72
1
11
185.9750
21
138.8250
31
0.0
0
LINE
8
Cmts_User
10
203.0250
20
143.8250
30
0.0
11
207.0250
21
143.8250
31
0.0
0
LINE
8
Cmts_User
10
205.0250
20
141.8250
30
0.0
11
205.0250
21
145.8250
31
0.0
0
CIRCLE
8
Cmts_User
10
205.0250
20
143.8250
30
0.0
40
2.0000
0
TEXT
8
Cmts_User
10
205.0250
20
138.8250
30
0.0
40
1.5000
1
C6
72
1
11
205.0250
21
138.8250
31
0.0
0
LINE
8
Cmts_User
10
222.0750
20
143.8250
30
0.0
11
226.0750
21
143.8250
31
0.0
0
LINE
8
Cmts_User
10
224.0750
20
141.8250
30
0.0
11
224.0750
21
145.8250
31
0.0
0
CIRCLE
8
Cmts_User
10
224.0750
20
143.8250
30
0.0
40
2.0000
0
TEXT
8
Cmts_User
10
224.0750
20
138.8250
30
0.0
40
1.5000
1
C5
72
1
11
224.0750
21
138.8250
31
0.0
0
LINE
8
Cmts_User
10
241.1250
20
143.8250
30
0.0
11
245.1250
21
143.8250
31
0.0
0
LINE
8
Cmts_User
10
243.1250
20
141.8250
30
0.0
11
243.1250
21
145.8250
31
0.0
0
CIRCLE
8
Cmts_User
10
243.1250
20
143.8250
30
0.0
40
2.0000
0
TEXT
8
Cmts_User
10
243.1250
20
138.8250
30
0.0
40
1.5000
1
C4
72
1
11
243.1250
21
138.8250
31
0.0
0
LINE
8
Cmts_User
10
260.1750
20
143.8250
30
0.0
11
264.1750
21
143.8250
31
0.0
0
LINE
8
Cmts_User
10
262.1750
20
141.8250
30
0.0
11
262.1750
21
145.8250
31
0.0
0
CIRCLE
8
Cmts_User
10
262.1750
20
143.8250
30
0.0
40
2.0000
0
TEXT
8
Cmts_User
10
262.1750
20
138.8250
30
0.0
40
1.5000
1
C3
72
1
11
262.1750
21
138.8250
31
0.0
0
LINE
8
Cmts_User
10
12.5250
20
162.8750
30
0.0
11
16.5250
21
162.8750
31
0.0
0
LINE
8
Cmts_User
10
14.5250
20
160.8750
30
0.0
11
14.5250
21
164.8750
31
0.0
0
CIRCLE
8
Cmts_User
10
14.5250
20
162.8750
30
0.0
40
2.0000
0
TEXT
8
Cmts_User
10
14.5250
20
157.8750
30
0.0
40
1.5000
1
SmJK
72
1
11
14.5250
21
157.8750
31
0.0
0
LINE
8
Cmts_User
10
31.5750
20
162.8750
30
0.0
11
35.5750
21
162.8750
31
0.0
0
LINE
8
Cmts_User
10
33.5750
20
160.8750
30
0.0
11
33.5750
21
164.8750
31
0.0
0
CIRCLE
8
Cmts_User
10
33.5750
20
162.8750
30
0.0
40
2.0000
0
TEXT
8
Cmts_User
10
33.5750
20
157.8750
30
0.0
40
1.5000
1
C2
72
1
11
33.5750
21
157.8750
31
0.0
0
LINE
8
Cmts_User
10
50.6250
20
162.8750
30
0.0
11
54.6250
21
162.8750
31
0.0
0
LINE
8
Cmts_User
10
52.6250
20
160.8750
30
0.0
11
52.6250
21
164.8750
31
0.0
0
CIRCLE
8
Cmts_User
10
52.6250
20
162.8750
30
0.0
40
2.0000
0
TEXT
8
Cmts_User
10
52.6250
20
157.8750
30
0.0
40
1.5000
1
CA
72
1
11
52.6250
21
157.8750
31
0.0
0
LINE
8
Cmts_User
10
69.6750
20
162.8750
30
0.0
11
73.6750
21
162.8750
31
0.0
0
LINE
8
Cmts_User
10
71.6750
20
160.8750
30
0.0
11
71.6750
21
164.8750
31
0.0
0
CIRCLE
8
Cmts_User
10
71.6750
20
162.8750
30
0.0
40
2.0000
0
TEXT
8
Cmts_User
10
71.6750
20
157.8750
30
0.0
40
1.5000
1
CK
72
1
11
71.6750
21
157.8750
31
0.0
0
LINE
8
Cmts_User
10
88.7250
20
162.8750
30
0.0
11
92.7250
21
162.8750
31
0.0
0
LINE
8
Cmts_User
10
90.7250
20
160.8750
30
0.0
11
90.7250
21
164.8750
31
0.0
0
CIRCLE
8
Cmts_User
10
90.7250
20
162.8750
30
0.0
40
2.0000
0
TEXT
8
Cmts_User
10
90.7250
20
157.8750
30
0.0
40
1.5000
1
CQ
72
1
11
90.7250
21
157.8750
31
0.0
0
LINE
8
Cmts_User
10
107.7750
20
162.8750
30
0.0
11
111.7750
21
162.8750
31
0.0
0
LINE
8
Cmts_User
10
109.7750
20
160.8750
30
0.0
11
109.7750
21
164.8750
31
0.0
0
CIRCLE
8
Cmts_User
10
109.7750
20
162.8750
30
0.0
40
2.0000
0
TEXT
8
Cmts_User
10
109.7750
20
157.8750
30
0.0
40
1.5000
1
CJ
72
1
11
109.7750
21
157.8750
31
0.0
0
LINE
8
Cmts_User
10
126.8250
20
162.8750
30
0.0
11
130.8250
21
162.8750
31
0.0
0
LINE
8
Cmts_User
10
128.8250
20
160.8750
30
0.0
11
128.8250
21
164.8750
31
0.0
0
CIRCLE
8
Cmts_User
10
128.8250
20
162.8750
30
0.0
40
2.0000
0
TEXT
8
Cmts_User
10
128.8250
20
157.8750
30
0.0
40
1.5000
1
CT
72
1
11
128.8250
21
157.8750
31
0.0
0
LINE
8
Cmts_User
10
145.8750
20
162.8750
30
0.0
11
149.8750
21
162.8750
31
0.0
0
LINE
8
Cmts_User
10
147.8750
20
160.8750
30
0.0
11
147.8750
21
164.8750
31
0.0
0
CIRCLE
8
Cmts_User
10
147.8750
20
162.8750
30
0.0
40
2.0000
0
TEXT
8
Cmts_User
10
147.8750
20
157.8750
30
0.0
40
1.5000
1
C9
72
1
11
147.8750
21
157.8750
31
0.0
0
LINE
8
Cmts_User
10
164.9250
20
162.8750
30
0.0
11
168.9250
21
162.8750
31
0.0
0
LINE
8
Cmts_User
10
166.9250
20
160.8750
30
0.0
11
166.9250
21
164.8750
31
0.0
0
CIRCLE
8
Cmts_User
10
166.9250
20
162.8750
30
0.0
40
2.0000
0
TEXT
8
Cmts_User
10
166.9250
20
157.8750
30
0.0
40
1.5000
1
C8
72
1
11
166.9250
21
157.8750
31
0.0
0
LINE
8
Cmts_User
10
183.9750
20
162.8750
30
0.0
11
187.9750
21
162.8750
31
0.0
0
LINE
8
Cmts_User
10
185.9750
20
160.8750
30
0.0
11
185.9750
21
164.8750
31
0.0
0
CIRCLE
8
Cmts_User
10
185.9750
20
162.8750
30
0.0
40
2.0000
0
TEXT
8
Cmts_User
10
185.9750
20
157.8750
30
0.0
40
1.5000
1
C7
72
1
11
185.9750
21
157.8750
31
0.0
0
LINE
8
Cmts_User
10
203.0250
20
162.8750
30
0.0
11
207.0250
21
162.8750
31
0.0
0
LINE
8
Cmts_User
10
205.0250
20
160.8750
30
0.0
11
205.0250
21
164.8750
31
0.0
0
CIRCLE
8
Cmts_User
10
205.0250
20
162.8750
30
0.0
40
2.0000
0
TEXT
8
Cmts_User
10
205.0250
20
157.8750
30
0.0
40
1.5000
1
C6
72
1
11
205.0250
21
157.8750
31
0.0
0
LINE
8
Cmts_User
10
222.0750
20
162.8750
30
0.0
11
226.0750
21
162.8750
31
0.0
0
LINE
8
Cmts_User
10
224.0750
20
160.8750
30
0.0
11
224.0750
21
164.8750
31
0.0
0
CIRCLE
8
Cmts_User
10
224.0750
20
162.8750
30
0.0
40
2.0000
0
TEXT
8
Cmts_User
10
224.0750
20
157.8750
30
0.0
40
1.5000
1
C5
72
1
11
224.0750
21
157.8750
31
0.0
0
LINE
8
Cmts_User
10
241.1250
20
162.8750
30
0.0
11
245.1250
21
162.8750
31
0.0
0
LINE
8
Cmts_User
10
243.1250
20
160.8750
30
0.0
11
243.1250
21
164.8750
31
0.0
0
CIRCLE
8
Cmts_User
10
243.1250
20
162.8750
30
0.0
40
2.0000
0
TEXT
8
Cmts_User
10
243.1250
20
157.8750
30
0.0
40
1.5000
1
C4
72
1
11
243.1250
21
157.8750
31
0.0
0
LINE
8
Cmts_User
10
260.1750
20
162.8750
30
0.0
11
264.1750
21
162.8750
31
0.0
0
LINE
8
Cmts_User
10
262.1750
20
160.8750
30
0.0
11
262.1750
21
164.8750
31
0.0
0
CIRCLE
8
Cmts_User
10
262.1750
20
162.8750
30
0.0
40
2.0000
0
TEXT
8
Cmts_User
10
262.1750
20
157.8750
30
0.0
40
1.5000
1
C3
72
1
11
262.1750
21
157.8750
31
0.0
0
LINE
8
MCU_Area
10
98.3500
20
2.0000
30
0.0
11
178.3500
21
2.0000
31
0.0
0
LINE
8
MCU_Area
10
178.3500
20
2.0000
30
0.0
11
178.3500
21
15.0000
31
0.0
0
LINE
8
MCU_Area
10
178.3500
20
15.0000
30
0.0
11
98.3500
21
15.0000
31
0.0
0
LINE
8
MCU_Area
10
98.3500
20
15.0000
30
0.0
11
98.3500
21
2.0000
31
0.0
0
TEXT
8
MCU_Area
10
138.3500
20
0.0000
30
0.0
40
1.5000
1
MCU AREA (RP2040 + Crystal + LDO + ESD + Flash)
72
1
11
138.3500
21
0.0000
31
0.0
0
LINE
8
MCU_Area
10
104.8500
20
5.0000
30
0.0
11
111.8500
21
5.0000
31
0.0
0
LINE
8
MCU_Area
10
111.8500
20
5.0000
30
0.0
11
111.8500
21
12.0000
31
0.0
0
LINE
8
MCU_Area
10
111.8500
20
12.0000
30
0.0
11
104.8500
21
12.0000
31
0.0
0
LINE
8
MCU_Area
10
104.8500
20
12.0000
30
0.0
11
104.8500
21
5.0000
31
0.0
0
TEXT
8
MCU_Area
10
108.3500
20
8.5000
30
0.0
40
1.0000
1
RP2040
72
1
11
108.3500
21
8.5000
31
0.0
0
TEXT
8
MCU_Area
10
108.3500
20
3.5000
30
0.0
40
0.8000
1
QFN56 7x7
72
1
11
108.3500
21
3.5000
31
0.0
0
LINE
8
MCU_Area
10
121.7500
20
7.2500
30
0.0
11
124.9500
21
7.2500
31
0.0
0
LINE
8
MCU_Area
10
124.9500
20
7.2500
30
0.0
11
124.9500
21
9.7500
31
0.0
0
LINE
8
MCU_Area
10
124.9500
20
9.7500
30
0.0
11
121.7500
21
9.7500
31
0.0
0
LINE
8
MCU_Area
10
121.7500
20
9.7500
30
0.0
11
121.7500
21
7.2500
31
0.0
0
TEXT
8
MCU_Area
10
123.3500
20
5.7500
30
0.0
40
0.8000
1
12MHz
72
1
11
123.3500
21
5.7500
31
0.0
0
LINE
8
MCU_Area
10
136.8500
20
7.0000
30
0.0
11
139.8500
21
7.0000
31
0.0
0
LINE
8
MCU_Area
10
139.8500
20
7.0000
30
0.0
11
139.8500
21
10.0000
31
0.0
0
LINE
8
MCU_Area
10
139.8500
20
10.0000
30
0.0
11
136.8500
21
10.0000
31
0.0
0
LINE
8
MCU_Area
10
136.8500
20
10.0000
30
0.0
11
136.8500
21
7.0000
31
0.0
0
TEXT
8
MCU_Area
10
138.3500
20
5.5000
30
0.0
40
0.8000
1
LDO 3.3V
72
1
11
138.3500
21
5.5000
31
0.0
0
LINE
8
MCU_Area
10
151.8500
20
7.0000
30
0.0
11
154.8500
21
7.0000
31
0.0
0
LINE
8
MCU_Area
10
154.8500
20
7.0000
30
0.0
11
154.8500
21
10.0000
31
0.0
0
LINE
8
MCU_Area
10
154.8500
20
10.0000
30
0.0
11
151.8500
21
10.0000
31
0.0
0
LINE
8
MCU_Area
10
151.8500
20
10.0000
30
0.0
11
151.8500
21
7.0000
31
0.0
0
TEXT
8
MCU_Area
10
153.3500
20
5.5000
30
0.0
40
0.8000
1
ESD
72
1
11
153.3500
21
5.5000
31
0.0
0
LINE
8
MCU_Area
10
160.8500
20
6.5000
30
0.0
11
165.8500
21
6.5000
31
0.0
0
LINE
8
MCU_Area
10
165.8500
20
6.5000
30
0.0
11
165.8500
21
10.5000
31
0.0
0
LINE
8
MCU_Area
10
165.8500
20
10.5000
30
0.0
11
160.8500
21
10.5000
31
0.0
0
LINE
8
MCU_Area
10
160.8500
20
10.5000
30
0.0
11
160.8500
21
6.5000
31
0.0
0
TEXT
8
MCU_Area
10
163.3500
20
5.0000
30
0.0
40
0.8000
1
W25Q16
72
1
11
163.3500
21
5.0000
31
0.0
0
LINE
8
USB_Area
10
132.3500
20
-11.0000
30
0.0
11
144.3500
21
-11.0000
31
0.0
0
LINE
8
USB_Area
10
144.3500
20
-11.0000
30
0.0
11
144.3500
21
-2.0000
31
0.0
0
LINE
8
USB_Area
10
144.3500
20
-2.0000
30
0.0
11
132.3500
21
-2.0000
31
0.0
0
LINE
8
USB_Area
10
132.3500
20
-2.0000
30
0.0
11
132.3500
21
-11.0000
31
0.0
0
TEXT
8
USB_Area
10
138.3500
20
-12.5000
30
0.0
40
1.0000
1
USB-C 16P
72
1
11
138.3500
21
-12.5000
31
0.0
0
LINE
8
MCU_Area
10
138.3500
20
-2.0000
30
0.0
11
108.3500
21
5.0000
31
0.0
0
TEXT
8
MCU_Area
10
143.3500
20
0.0000
30
0.0
40
0.8000
1
USB D+/D- (90ohm diff)
72
1
11
143.3500
21
0.0000
31
0.0
0
TEXT
8
MCU_Area
10
183.3500
20
8.5000
30
0.0
40
1.0000
1
GPIO -> 8 ROW + 14 COL = 22 pins
72
1
11
183.3500
21
8.5000
31
0.0
0
TEXT
8
Cmts_User
10
138.3500
20
182.4000
30
0.0
40
2.5000
1
GUANDAN KEYBOARD V2 (INTEGRATED)  276.7x177.4mm
72
1
11
138.3500
21
182.4000
31
0.0
0
TEXT
8
Cmts_User
10
138.3500
20
187.4000
30
0.0
40
1.8000
1
109 Keys + RGB LED | RP2040 MCU | USB-C | No external dev board
72
1
11
138.3500
21
187.4000
31
0.0
0
TEXT
8
Cmts_User
10
138.3500
20
192.4000
30
0.0
40
1.5000
1
Matrix: 8 rows x 14 cols | Key pitch: 19.05mm
72
1
11
138.3500
21
192.4000
31
0.0
0
ENDSEC
0
EOF
