0
SECTION
2
HEADER
9
$ACADVER
1
AC1015
9
$INSUNITS
70
4
0
ENDSEC
0
SECTION
2
TABLES
0
TABLE
2
LAYER
70
3
0
LAYER
2
Edge_Cuts
70
0
62
7
6
CONTINUOUS
0
LAYER
2
Mounting
70
0
62
3
6
CONTINUOUS
0
LAYER
2
Cmts_User
70
0
62
5
6
CONTINUOUS
0
ENDTAB
0
ENDSEC
0
SECTION
2
ENTITIES
0
LINE
8
Edge_Cuts
10
3.0000
20
0.0000
30
0.0
11
273.7000
21
0.0000
31
0.0
0
LINE
8
Edge_Cuts
10
276.7000
20
3.0000
30
0.0
11
276.7000
21
159.4000
31
0.0
0
LINE
8
Edge_Cuts
10
273.7000
20
162.4000
30
0.0
11
3.0000
21
162.4000
31
0.0
0
LINE
8
Edge_Cuts
10
0.0000
20
159.4000
30
0.0
11
0.0000
21
3.0000
31
0.0
0
ARC
8
Edge_Cuts
10
3.0000
20
3.0000
30
0.0
40
3.0000
50
90.0000
51
180.0000
0
ARC
8
Edge_Cuts
10
273.7000
20
3.0000
30
0.0
40
3.0000
50
0.0000
51
90.0000
0
ARC
8
Edge_Cuts
10
273.7000
20
159.4000
30
0.0
40
3.0000
50
270.0000
51
360.0000
0
ARC
8
Edge_Cuts
10
3.0000
20
159.4000
30
0.0
40
3.0000
50
180.0000
51
270.0000
0
CIRCLE
8
Edge_Cuts
10
4.0000
20
4.0000
30
0.0
40
1.6000
0
CIRCLE
8
Edge_Cuts
10
138.3500
20
4.0000
30
0.0
40
1.6000
0
CIRCLE
8
Edge_Cuts
10
272.7000
20
4.0000
30
0.0
40
1.6000
0
CIRCLE
8
Edge_Cuts
10
4.0000
20
158.4000
30
0.0
40
1.6000
0
CIRCLE
8
Edge_Cuts
10
138.3500
20
158.4000
30
0.0
40
1.6000
0
CIRCLE
8
Edge_Cuts
10
272.7000
20
158.4000
30
0.0
40
1.6000
0
LINE
8
Edge_Cuts
10
7.5250
20
7.5250
30
0.0
11
21.5250
21
7.5250
31
0.0
0
LINE
8
Edge_Cuts
10
21.5250
20
7.5250
30
0.0
11
21.5250
21
40.5750
31
0.0
0
LINE
8
Edge_Cuts
10
21.5250
20
40.5750
30
0.0
11
7.5250
21
40.5750
31
0.0
0
LINE
8
Edge_Cuts
10
7.5250
20
40.5750
30
0.0
11
7.5250
21
7.5250
31
0.0
0
LINE
8
Edge_Cuts
10
11.2000
20
10.9000
30
0.0
11
17.8500
21
10.9000
31
0.0
0
LINE
8
Edge_Cuts
10
17.8500
20
10.9000
30
0.0
11
17.8500
21
23.2000
31
0.0
0
LINE
8
Edge_Cuts
10
17.8500
20
23.2000
30
0.0
11
11.2000
21
23.2000
31
0.0
0
LINE
8
Edge_Cuts
10
11.2000
20
23.2000
30
0.0
11
11.2000
21
10.9000
31
0.0
0
LINE
8
Edge_Cuts
10
11.2000
20
24.9000
30
0.0
11
17.8500
21
24.9000
31
0.0
0
LINE
8
Edge_Cuts
10
17.8500
20
24.9000
30
0.0
11
17.8500
21
37.2000
31
0.0
0
LINE
8
Edge_Cuts
10
17.8500
20
37.2000
30
0.0
11
11.2000
21
37.2000
31
0.0
0
LINE
8
Edge_Cuts
10
11.2000
20
37.2000
30
0.0
11
11.2000
21
24.9000
31
0.0
0
LINE
8
Edge_Cuts
10
26.5750
20
7.5250
30
0.0
11
40.5750
21
7.5250
31
0.0
0
LINE
8
Edge_Cuts
10
40.5750
20
7.5250
30
0.0
11
40.5750
21
21.5250
31
0.0
0
LINE
8
Edge_Cuts
10
40.5750
20
21.5250
30
0.0
11
26.5750
21
21.5250
31
0.0
0
LINE
8
Edge_Cuts
10
26.5750
20
21.5250
30
0.0
11
26.5750
21
7.5250
31
0.0
0
LINE
8
Edge_Cuts
10
45.6250
20
7.5250
30
0.0
11
59.6250
21
7.5250
31
0.0
0
LINE
8
Edge_Cuts
10
59.6250
20
7.5250
30
0.0
11
59.6250
21
21.5250
31
0.0
0
LINE
8
Edge_Cuts
10
59.6250
20
21.5250
30
0.0
11
45.6250
21
21.5250
31
0.0
0
LINE
8
Edge_Cuts
10
45.6250
20
21.5250
30
0.0
11
45.6250
21
7.5250
31
0.0
0
LINE
8
Edge_Cuts
10
64.6750
20
7.5250
30
0.0
11
78.6750
21
7.5250
31
0.0
0
LINE
8
Edge_Cuts
10
78.6750
20
7.5250
30
0.0
11
78.6750
21
21.5250
31
0.0
0
LINE
8
Edge_Cuts
10
78.6750
20
21.5250
30
0.0
11
64.6750
21
21.5250
31
0.0
0
LINE
8
Edge_Cuts
10
64.6750
20
21.5250
30
0.0
11
64.6750
21
7.5250
31
0.0
0
LINE
8
Edge_Cuts
10
83.7250
20
7.5250
30
0.0
11
97.7250
21
7.5250
31
0.0
0
LINE
8
Edge_Cuts
10
97.7250
20
7.5250
30
0.0
11
97.7250
21
21.5250
31
0.0
0
LINE
8
Edge_Cuts
10
97.7250
20
21.5250
30
0.0
11
83.7250
21
21.5250
31
0.0
0
LINE
8
Edge_Cuts
10
83.7250
20
21.5250
30
0.0
11
83.7250
21
7.5250
31
0.0
0
LINE
8
Edge_Cuts
10
102.7750
20
7.5250
30
0.0
11
116.7750
21
7.5250
31
0.0
0
LINE
8
Edge_Cuts
10
116.7750
20
7.5250
30
0.0
11
116.7750
21
21.5250
31
0.0
0
LINE
8
Edge_Cuts
10
116.7750
20
21.5250
30
0.0
11
102.7750
21
21.5250
31
0.0
0
LINE
8
Edge_Cuts
10
102.7750
20
21.5250
30
0.0
11
102.7750
21
7.5250
31
0.0
0
LINE
8
Edge_Cuts
10
121.8250
20
7.5250
30
0.0
11
135.8250
21
7.5250
31
0.0
0
LINE
8
Edge_Cuts
10
135.8250
20
7.5250
30
0.0
11
135.8250
21
21.5250
31
0.0
0
LINE
8
Edge_Cuts
10
135.8250
20
21.5250
30
0.0
11
121.8250
21
21.5250
31
0.0
0
LINE
8
Edge_Cuts
10
121.8250
20
21.5250
30
0.0
11
121.8250
21
7.5250
31
0.0
0
LINE
8
Edge_Cuts
10
140.8750
20
7.5250
30
0.0
11
154.8750
21
7.5250
31
0.0
0
LINE
8
Edge_Cuts
10
154.8750
20
7.5250
30
0.0
11
154.8750
21
21.5250
31
0.0
0
LINE
8
Edge_Cuts
10
154.8750
20
21.5250
30
0.0
11
140.8750
21
21.5250
31
0.0
0
LINE
8
Edge_Cuts
10
140.8750
20
21.5250
30
0.0
11
140.8750
21
7.5250
31
0.0
0
LINE
8
Edge_Cuts
10
159.9250
20
7.5250
30
0.0
11
173.9250
21
7.5250
31
0.0
0
LINE
8
Edge_Cuts
10
173.9250
20
7.5250
30
0.0
11
173.9250
21
21.5250
31
0.0
0
LINE
8
Edge_Cuts
10
173.9250
20
21.5250
30
0.0
11
159.9250
21
21.5250
31
0.0
0
LINE
8
Edge_Cuts
10
159.9250
20
21.5250
30
0.0
11
159.9250
21
7.5250
31
0.0
0
LINE
8
Edge_Cuts
10
178.9750
20
7.5250
30
0.0
11
192.9750
21
7.5250
31
0.0
0
LINE
8
Edge_Cuts
10
192.9750
20
7.5250
30
0.0
11
192.9750
21
21.5250
31
0.0
0
LINE
8
Edge_Cuts
10
192.9750
20
21.5250
30
0.0
11
178.9750
21
21.5250
31
0.0
0
LINE
8
Edge_Cuts
10
178.9750
20
21.5250
30
0.0
11
178.9750
21
7.5250
31
0.0
0
LINE
8
Edge_Cuts
10
198.0250
20
7.5250
30
0.0
11
212.0250
21
7.5250
31
0.0
0
LINE
8
Edge_Cuts
10
212.0250
20
7.5250
30
0.0
11
212.0250
21
21.5250
31
0.0
0
LINE
8
Edge_Cuts
10
212.0250
20
21.5250
30
0.0
11
198.0250
21
21.5250
31
0.0
0
LINE
8
Edge_Cuts
10
198.0250
20
21.5250
30
0.0
11
198.0250
21
7.5250
31
0.0
0
LINE
8
Edge_Cuts
10
217.0750
20
7.5250
30
0.0
11
231.0750
21
7.5250
31
0.0
0
LINE
8
Edge_Cuts
10
231.0750
20
7.5250
30
0.0
11
231.0750
21
21.5250
31
0.0
0
LINE
8
Edge_Cuts
10
231.0750
20
21.5250
30
0.0
11
217.0750
21
21.5250
31
0.0
0
LINE
8
Edge_Cuts
10
217.0750
20
21.5250
30
0.0
11
217.0750
21
7.5250
31
0.0
0
LINE
8
Edge_Cuts
10
236.1250
20
7.5250
30
0.0
11
250.1250
21
7.5250
31
0.0
0
LINE
8
Edge_Cuts
10
250.1250
20
7.5250
30
0.0
11
250.1250
21
21.5250
31
0.0
0
LINE
8
Edge_Cuts
10
250.1250
20
21.5250
30
0.0
11
236.1250
21
21.5250
31
0.0
0
LINE
8
Edge_Cuts
10
236.1250
20
21.5250
30
0.0
11
236.1250
21
7.5250
31
0.0
0
LINE
8
Edge_Cuts
10
255.1750
20
7.5250
30
0.0
11
269.1750
21
7.5250
31
0.0
0
LINE
8
Edge_Cuts
10
269.1750
20
7.5250
30
0.0
11
269.1750
21
21.5250
31
0.0
0
LINE
8
Edge_Cuts
10
269.1750
20
21.5250
30
0.0
11
255.1750
21
21.5250
31
0.0
0
LINE
8
Edge_Cuts
10
255.1750
20
21.5250
30
0.0
11
255.1750
21
7.5250
31
0.0
0
LINE
8
Edge_Cuts
10
26.5750
20
26.5750
30
0.0
11
40.5750
21
26.5750
31
0.0
0
LINE
8
Edge_Cuts
10
40.5750
20
26.5750
30
0.0
11
40.5750
21
40.5750
31
0.0
0
LINE
8
Edge_Cuts
10
40.5750
20
40.5750
30
0.0
11
26.5750
21
40.5750
31
0.0
0
LINE
8
Edge_Cuts
10
26.5750
20
40.5750
30
0.0
11
26.5750
21
26.5750
31
0.0
0
LINE
8
Edge_Cuts
10
45.6250
20
26.5750
30
0.0
11
59.6250
21
26.5750
31
0.0
0
LINE
8
Edge_Cuts
10
59.6250
20
26.5750
30
0.0
11
59.6250
21
40.5750
31
0.0
0
LINE
8
Edge_Cuts
10
59.6250
20
40.5750
30
0.0
11
45.6250
21
40.5750
31
0.0
0
LINE
8
Edge_Cuts
10
45.6250
20
40.5750
30
0.0
11
45.6250
21
26.5750
31
0.0
0
LINE
8
Edge_Cuts
10
64.6750
20
26.5750
30
0.0
11
78.6750
21
26.5750
31
0.0
0
LINE
8
Edge_Cuts
10
78.6750
20
26.5750
30
0.0
11
78.6750
21
40.5750
31
0.0
0
LINE
8
Edge_Cuts
10
78.6750
20
40.5750
30
0.0
11
64.6750
21
40.5750
31
0.0
0
LINE
8
Edge_Cuts
10
64.6750
20
40.5750
30
0.0
11
64.6750
21
26.5750
31
0.0
0
LINE
8
Edge_Cuts
10
83.7250
20
26.5750
30
0.0
11
97.7250
21
26.5750
31
0.0
0
LINE
8
Edge_Cuts
10
97.7250
20
26.5750
30
0.0
11
97.7250
21
40.5750
31
0.0
0
LINE
8
Edge_Cuts
10
97.7250
20
40.5750
30
0.0
11
83.7250
21
40.5750
31
0.0
0
LINE
8
Edge_Cuts
10
83.7250
20
40.5750
30
0.0
11
83.7250
21
26.5750
31
0.0
0
LINE
8
Edge_Cuts
10
102.7750
20
26.5750
30
0.0
11
116.7750
21
26.5750
31
0.0
0
LINE
8
Edge_Cuts
10
116.7750
20
26.5750
30
0.0
11
116.7750
21
40.5750
31
0.0
0
LINE
8
Edge_Cuts
10
116.7750
20
40.5750
30
0.0
11
102.7750
21
40.5750
31
0.0
0
LINE
8
Edge_Cuts
10
102.7750
20
40.5750
30
0.0
11
102.7750
21
26.5750
31
0.0
0
LINE
8
Edge_Cuts
10
121.8250
20
26.5750
30
0.0
11
135.8250
21
26.5750
31
0.0
0
LINE
8
Edge_Cuts
10
135.8250
20
26.5750
30
0.0
11
135.8250
21
40.5750
31
0.0
0
LINE
8
Edge_Cuts
10
135.8250
20
40.5750
30
0.0
11
121.8250
21
40.5750
31
0.0
0
LINE
8
Edge_Cuts
10
121.8250
20
40.5750
30
0.0
11
121.8250
21
26.5750
31
0.0
0
LINE
8
Edge_Cuts
10
140.8750
20
26.5750
30
0.0
11
154.8750
21
26.5750
31
0.0
0
LINE
8
Edge_Cuts
10
154.8750
20
26.5750
30
0.0
11
154.8750
21
40.5750
31
0.0
0
LINE
8
Edge_Cuts
10
154.8750
20
40.5750
30
0.0
11
140.8750
21
40.5750
31
0.0
0
LINE
8
Edge_Cuts
10
140.8750
20
40.5750
30
0.0
11
140.8750
21
26.5750
31
0.0
0
LINE
8
Edge_Cuts
10
159.9250
20
26.5750
30
0.0
11
173.9250
21
26.5750
31
0.0
0
LINE
8
Edge_Cuts
10
173.9250
20
26.5750
30
0.0
11
173.9250
21
40.5750
31
0.0
0
LINE
8
Edge_Cuts
10
173.9250
20
40.5750
30
0.0
11
159.9250
21
40.5750
31
0.0
0
LINE
8
Edge_Cuts
10
159.9250
20
40.5750
30
0.0
11
159.9250
21
26.5750
31
0.0
0
LINE
8
Edge_Cuts
10
178.9750
20
26.5750
30
0.0
11
192.9750
21
26.5750
31
0.0
0
LINE
8
Edge_Cuts
10
192.9750
20
26.5750
30
0.0
11
192.9750
21
40.5750
31
0.0
0
LINE
8
Edge_Cuts
10
192.9750
20
40.5750
30
0.0
11
178.9750
21
40.5750
31
0.0
0
LINE
8
Edge_Cuts
10
178.9750
20
40.5750
30
0.0
11
178.9750
21
26.5750
31
0.0
0
LINE
8
Edge_Cuts
10
198.0250
20
26.5750
30
0.0
11
212.0250
21
26.5750
31
0.0
0
LINE
8
Edge_Cuts
10
212.0250
20
26.5750
30
0.0
11
212.0250
21
40.5750
31
0.0
0
LINE
8
Edge_Cuts
10
212.0250
20
40.5750
30
0.0
11
198.0250
21
40.5750
31
0.0
0
LINE
8
Edge_Cuts
10
198.0250
20
40.5750
30
0.0
11
198.0250
21
26.5750
31
0.0
0
LINE
8
Edge_Cuts
10
217.0750
20
26.5750
30
0.0
11
231.0750
21
26.5750
31
0.0
0
LINE
8
Edge_Cuts
10
231.0750
20
26.5750
30
0.0
11
231.0750
21
40.5750
31
0.0
0
LINE
8
Edge_Cuts
10
231.0750
20
40.5750
30
0.0
11
217.0750
21
40.5750
31
0.0
0
LINE
8
Edge_Cuts
10
217.0750
20
40.5750
30
0.0
11
217.0750
21
26.5750
31
0.0
0
LINE
8
Edge_Cuts
10
236.1250
20
26.5750
30
0.0
11
250.1250
21
26.5750
31
0.0
0
LINE
8
Edge_Cuts
10
250.1250
20
26.5750
30
0.0
11
250.1250
21
40.5750
31
0.0
0
LINE
8
Edge_Cuts
10
250.1250
20
40.5750
30
0.0
11
236.1250
21
40.5750
31
0.0
0
LINE
8
Edge_Cuts
10
236.1250
20
40.5750
30
0.0
11
236.1250
21
26.5750
31
0.0
0
LINE
8
Edge_Cuts
10
255.1750
20
26.5750
30
0.0
11
269.1750
21
26.5750
31
0.0
0
LINE
8
Edge_Cuts
10
269.1750
20
26.5750
30
0.0
11
269.1750
21
40.5750
31
0.0
0
LINE
8
Edge_Cuts
10
269.1750
20
40.5750
30
0.0
11
255.1750
21
40.5750
31
0.0
0
LINE
8
Edge_Cuts
10
255.1750
20
40.5750
30
0.0
11
255.1750
21
26.5750
31
0.0
0
LINE
8
Edge_Cuts
10
7.5250
20
45.6250
30
0.0
11
21.5250
21
45.6250
31
0.0
0
LINE
8
Edge_Cuts
10
21.5250
20
45.6250
30
0.0
11
21.5250
21
78.6750
31
0.0
0
LINE
8
Edge_Cuts
10
21.5250
20
78.6750
30
0.0
11
7.5250
21
78.6750
31
0.0
0
LINE
8
Edge_Cuts
10
7.5250
20
78.6750
30
0.0
11
7.5250
21
45.6250
31
0.0
0
LINE
8
Edge_Cuts
10
11.2000
20
49.0000
30
0.0
11
17.8500
21
49.0000
31
0.0
0
LINE
8
Edge_Cuts
10
17.8500
20
49.0000
30
0.0
11
17.8500
21
61.3000
31
0.0
0
LINE
8
Edge_Cuts
10
17.8500
20
61.3000
30
0.0
11
11.2000
21
61.3000
31
0.0
0
LINE
8
Edge_Cuts
10
11.2000
20
61.3000
30
0.0
11
11.2000
21
49.0000
31
0.0
0
LINE
8
Edge_Cuts
10
11.2000
20
63.0000
30
0.0
11
17.8500
21
63.0000
31
0.0
0
LINE
8
Edge_Cuts
10
17.8500
20
63.0000
30
0.0
11
17.8500
21
75.3000
31
0.0
0
LINE
8
Edge_Cuts
10
17.8500
20
75.3000
30
0.0
11
11.2000
21
75.3000
31
0.0
0
LINE
8
Edge_Cuts
10
11.2000
20
75.3000
30
0.0
11
11.2000
21
63.0000
31
0.0
0
LINE
8
Edge_Cuts
10
26.5750
20
45.6250
30
0.0
11
40.5750
21
45.6250
31
0.0
0
LINE
8
Edge_Cuts
10
40.5750
20
45.6250
30
0.0
11
40.5750
21
59.6250
31
0.0
0
LINE
8
Edge_Cuts
10
40.5750
20
59.6250
30
0.0
11
26.5750
21
59.6250
31
0.0
0
LINE
8
Edge_Cuts
10
26.5750
20
59.6250
30
0.0
11
26.5750
21
45.6250
31
0.0
0
LINE
8
Edge_Cuts
10
45.6250
20
45.6250
30
0.0
11
59.6250
21
45.6250
31
0.0
0
LINE
8
Edge_Cuts
10
59.6250
20
45.6250
30
0.0
11
59.6250
21
59.6250
31
0.0
0
LINE
8
Edge_Cuts
10
59.6250
20
59.6250
30
0.0
11
45.6250
21
59.6250
31
0.0
0
LINE
8
Edge_Cuts
10
45.6250
20
59.6250
30
0.0
11
45.6250
21
45.6250
31
0.0
0
LINE
8
Edge_Cuts
10
64.6750
20
45.6250
30
0.0
11
78.6750
21
45.6250
31
0.0
0
LINE
8
Edge_Cuts
10
78.6750
20
45.6250
30
0.0
11
78.6750
21
59.6250
31
0.0
0
LINE
8
Edge_Cuts
10
78.6750
20
59.6250
30
0.0
11
64.6750
21
59.6250
31
0.0
0
LINE
8
Edge_Cuts
10
64.6750
20
59.6250
30
0.0
11
64.6750
21
45.6250
31
0.0
0
LINE
8
Edge_Cuts
10
83.7250
20
45.6250
30
0.0
11
97.7250
21
45.6250
31
0.0
0
LINE
8
Edge_Cuts
10
97.7250
20
45.6250
30
0.0
11
97.7250
21
59.6250
31
0.0
0
LINE
8
Edge_Cuts
10
97.7250
20
59.6250
30
0.0
11
83.7250
21
59.6250
31
0.0
0
LINE
8
Edge_Cuts
10
83.7250
20
59.6250
30
0.0
11
83.7250
21
45.6250
31
0.0
0
LINE
8
Edge_Cuts
10
102.7750
20
45.6250
30
0.0
11
116.7750
21
45.6250
31
0.0
0
LINE
8
Edge_Cuts
10
116.7750
20
45.6250
30
0.0
11
116.7750
21
59.6250
31
0.0
0
LINE
8
Edge_Cuts
10
116.7750
20
59.6250
30
0.0
11
102.7750
21
59.6250
31
0.0
0
LINE
8
Edge_Cuts
10
102.7750
20
59.6250
30
0.0
11
102.7750
21
45.6250
31
0.0
0
LINE
8
Edge_Cuts
10
121.8250
20
45.6250
30
0.0
11
135.8250
21
45.6250
31
0.0
0
LINE
8
Edge_Cuts
10
135.8250
20
45.6250
30
0.0
11
135.8250
21
59.6250
31
0.0
0
LINE
8
Edge_Cuts
10
135.8250
20
59.6250
30
0.0
11
121.8250
21
59.6250
31
0.0
0
LINE
8
Edge_Cuts
10
121.8250
20
59.6250
30
0.0
11
121.8250
21
45.6250
31
0.0
0
LINE
8
Edge_Cuts
10
140.8750
20
45.6250
30
0.0
11
154.8750
21
45.6250
31
0.0
0
LINE
8
Edge_Cuts
10
154.8750
20
45.6250
30
0.0
11
154.8750
21
59.6250
31
0.0
0
LINE
8
Edge_Cuts
10
154.8750
20
59.6250
30
0.0
11
140.8750
21
59.6250
31
0.0
0
LINE
8
Edge_Cuts
10
140.8750
20
59.6250
30
0.0
11
140.8750
21
45.6250
31
0.0
0
LINE
8
Edge_Cuts
10
159.9250
20
45.6250
30
0.0
11
173.9250
21
45.6250
31
0.0
0
LINE
8
Edge_Cuts
10
173.9250
20
45.6250
30
0.0
11
173.9250
21
59.6250
31
0.0
0
LINE
8
Edge_Cuts
10
173.9250
20
59.6250
30
0.0
11
159.9250
21
59.6250
31
0.0
0
LINE
8
Edge_Cuts
10
159.9250
20
59.6250
30
0.0
11
159.9250
21
45.6250
31
0.0
0
LINE
8
Edge_Cuts
10
178.9750
20
45.6250
30
0.0
11
192.9750
21
45.6250
31
0.0
0
LINE
8
Edge_Cuts
10
192.9750
20
45.6250
30
0.0
11
192.9750
21
59.6250
31
0.0
0
LINE
8
Edge_Cuts
10
192.9750
20
59.6250
30
0.0
11
178.9750
21
59.6250
31
0.0
0
LINE
8
Edge_Cuts
10
178.9750
20
59.6250
30
0.0
11
178.9750
21
45.6250
31
0.0
0
LINE
8
Edge_Cuts
10
198.0250
20
45.6250
30
0.0
11
212.0250
21
45.6250
31
0.0
0
LINE
8
Edge_Cuts
10
212.0250
20
45.6250
30
0.0
11
212.0250
21
59.6250
31
0.0
0
LINE
8
Edge_Cuts
10
212.0250
20
59.6250
30
0.0
11
198.0250
21
59.6250
31
0.0
0
LINE
8
Edge_Cuts
10
198.0250
20
59.6250
30
0.0
11
198.0250
21
45.6250
31
0.0
0
LINE
8
Edge_Cuts
10
217.0750
20
45.6250
30
0.0
11
231.0750
21
45.6250
31
0.0
0
LINE
8
Edge_Cuts
10
231.0750
20
45.6250
30
0.0
11
231.0750
21
59.6250
31
0.0
0
LINE
8
Edge_Cuts
10
231.0750
20
59.6250
30
0.0
11
217.0750
21
59.6250
31
0.0
0
LINE
8
Edge_Cuts
10
217.0750
20
59.6250
30
0.0
11
217.0750
21
45.6250
31
0.0
0
LINE
8
Edge_Cuts
10
236.1250
20
45.6250
30
0.0
11
250.1250
21
45.6250
31
0.0
0
LINE
8
Edge_Cuts
10
250.1250
20
45.6250
30
0.0
11
250.1250
21
59.6250
31
0.0
0
LINE
8
Edge_Cuts
10
250.1250
20
59.6250
30
0.0
11
236.1250
21
59.6250
31
0.0
0
LINE
8
Edge_Cuts
10
236.1250
20
59.6250
30
0.0
11
236.1250
21
45.6250
31
0.0
0
LINE
8
Edge_Cuts
10
255.1750
20
45.6250
30
0.0
11
269.1750
21
45.6250
31
0.0
0
LINE
8
Edge_Cuts
10
269.1750
20
45.6250
30
0.0
11
269.1750
21
59.6250
31
0.0
0
LINE
8
Edge_Cuts
10
269.1750
20
59.6250
30
0.0
11
255.1750
21
59.6250
31
0.0
0
LINE
8
Edge_Cuts
10
255.1750
20
59.6250
30
0.0
11
255.1750
21
45.6250
31
0.0
0
LINE
8
Edge_Cuts
10
26.5750
20
64.6750
30
0.0
11
40.5750
21
64.6750
31
0.0
0
LINE
8
Edge_Cuts
10
40.5750
20
64.6750
30
0.0
11
40.5750
21
78.6750
31
0.0
0
LINE
8
Edge_Cuts
10
40.5750
20
78.6750
30
0.0
11
26.5750
21
78.6750
31
0.0
0
LINE
8
Edge_Cuts
10
26.5750
20
78.6750
30
0.0
11
26.5750
21
64.6750
31
0.0
0
LINE
8
Edge_Cuts
10
45.6250
20
64.6750
30
0.0
11
59.6250
21
64.6750
31
0.0
0
LINE
8
Edge_Cuts
10
59.6250
20
64.6750
30
0.0
11
59.6250
21
78.6750
31
0.0
0
LINE
8
Edge_Cuts
10
59.6250
20
78.6750
30
0.0
11
45.6250
21
78.6750
31
0.0
0
LINE
8
Edge_Cuts
10
45.6250
20
78.6750
30
0.0
11
45.6250
21
64.6750
31
0.0
0
LINE
8
Edge_Cuts
10
64.6750
20
64.6750
30
0.0
11
78.6750
21
64.6750
31
0.0
0
LINE
8
Edge_Cuts
10
78.6750
20
64.6750
30
0.0
11
78.6750
21
78.6750
31
0.0
0
LINE
8
Edge_Cuts
10
78.6750
20
78.6750
30
0.0
11
64.6750
21
78.6750
31
0.0
0
LINE
8
Edge_Cuts
10
64.6750
20
78.6750
30
0.0
11
64.6750
21
64.6750
31
0.0
0
LINE
8
Edge_Cuts
10
83.7250
20
64.6750
30
0.0
11
97.7250
21
64.6750
31
0.0
0
LINE
8
Edge_Cuts
10
97.7250
20
64.6750
30
0.0
11
97.7250
21
78.6750
31
0.0
0
LINE
8
Edge_Cuts
10
97.7250
20
78.6750
30
0.0
11
83.7250
21
78.6750
31
0.0
0
LINE
8
Edge_Cuts
10
83.7250
20
78.6750
30
0.0
11
83.7250
21
64.6750
31
0.0
0
LINE
8
Edge_Cuts
10
102.7750
20
64.6750
30
0.0
11
116.7750
21
64.6750
31
0.0
0
LINE
8
Edge_Cuts
10
116.7750
20
64.6750
30
0.0
11
116.7750
21
78.6750
31
0.0
0
LINE
8
Edge_Cuts
10
116.7750
20
78.6750
30
0.0
11
102.7750
21
78.6750
31
0.0
0
LINE
8
Edge_Cuts
10
102.7750
20
78.6750
30
0.0
11
102.7750
21
64.6750
31
0.0
0
LINE
8
Edge_Cuts
10
121.8250
20
64.6750
30
0.0
11
135.8250
21
64.6750
31
0.0
0
LINE
8
Edge_Cuts
10
135.8250
20
64.6750
30
0.0
11
135.8250
21
78.6750
31
0.0
0
LINE
8
Edge_Cuts
10
135.8250
20
78.6750
30
0.0
11
121.8250
21
78.6750
31
0.0
0
LINE
8
Edge_Cuts
10
121.8250
20
78.6750
30
0.0
11
121.8250
21
64.6750
31
0.0
0
LINE
8
Edge_Cuts
10
140.8750
20
64.6750
30
0.0
11
154.8750
21
64.6750
31
0.0
0
LINE
8
Edge_Cuts
10
154.8750
20
64.6750
30
0.0
11
154.8750
21
78.6750
31
0.0
0
LINE
8
Edge_Cuts
10
154.8750
20
78.6750
30
0.0
11
140.8750
21
78.6750
31
0.0
0
LINE
8
Edge_Cuts
10
140.8750
20
78.6750
30
0.0
11
140.8750
21
64.6750
31
0.0
0
LINE
8
Edge_Cuts
10
159.9250
20
64.6750
30
0.0
11
173.9250
21
64.6750
31
0.0
0
LINE
8
Edge_Cuts
10
173.9250
20
64.6750
30
0.0
11
173.9250
21
78.6750
31
0.0
0
LINE
8
Edge_Cuts
10
173.9250
20
78.6750
30
0.0
11
159.9250
21
78.6750
31
0.0
0
LINE
8
Edge_Cuts
10
159.9250
20
78.6750
30
0.0
11
159.9250
21
64.6750
31
0.0
0
LINE
8
Edge_Cuts
10
178.9750
20
64.6750
30
0.0
11
192.9750
21
64.6750
31
0.0
0
LINE
8
Edge_Cuts
10
192.9750
20
64.6750
30
0.0
11
192.9750
21
78.6750
31
0.0
0
LINE
8
Edge_Cuts
10
192.9750
20
78.6750
30
0.0
11
178.9750
21
78.6750
31
0.0
0
LINE
8
Edge_Cuts
10
178.9750
20
78.6750
30
0.0
11
178.9750
21
64.6750
31
0.0
0
LINE
8
Edge_Cuts
10
198.0250
20
64.6750
30
0.0
11
212.0250
21
64.6750
31
0.0
0
LINE
8
Edge_Cuts
10
212.0250
20
64.6750
30
0.0
11
212.0250
21
78.6750
31
0.0
0
LINE
8
Edge_Cuts
10
212.0250
20
78.6750
30
0.0
11
198.0250
21
78.6750
31
0.0
0
LINE
8
Edge_Cuts
10
198.0250
20
78.6750
30
0.0
11
198.0250
21
64.6750
31
0.0
0
LINE
8
Edge_Cuts
10
217.0750
20
64.6750
30
0.0
11
231.0750
21
64.6750
31
0.0
0
LINE
8
Edge_Cuts
10
231.0750
20
64.6750
30
0.0
11
231.0750
21
78.6750
31
0.0
0
LINE
8
Edge_Cuts
10
231.0750
20
78.6750
30
0.0
11
217.0750
21
78.6750
31
0.0
0
LINE
8
Edge_Cuts
10
217.0750
20
78.6750
30
0.0
11
217.0750
21
64.6750
31
0.0
0
LINE
8
Edge_Cuts
10
236.1250
20
64.6750
30
0.0
11
250.1250
21
64.6750
31
0.0
0
LINE
8
Edge_Cuts
10
250.1250
20
64.6750
30
0.0
11
250.1250
21
78.6750
31
0.0
0
LINE
8
Edge_Cuts
10
250.1250
20
78.6750
30
0.0
11
236.1250
21
78.6750
31
0.0
0
LINE
8
Edge_Cuts
10
236.1250
20
78.6750
30
0.0
11
236.1250
21
64.6750
31
0.0
0
LINE
8
Edge_Cuts
10
255.1750
20
64.6750
30
0.0
11
269.1750
21
64.6750
31
0.0
0
LINE
8
Edge_Cuts
10
269.1750
20
64.6750
30
0.0
11
269.1750
21
78.6750
31
0.0
0
LINE
8
Edge_Cuts
10
269.1750
20
78.6750
30
0.0
11
255.1750
21
78.6750
31
0.0
0
LINE
8
Edge_Cuts
10
255.1750
20
78.6750
30
0.0
11
255.1750
21
64.6750
31
0.0
0
LINE
8
Edge_Cuts
10
7.5250
20
83.7250
30
0.0
11
21.5250
21
83.7250
31
0.0
0
LINE
8
Edge_Cuts
10
21.5250
20
83.7250
30
0.0
11
21.5250
21
116.7750
31
0.0
0
LINE
8
Edge_Cuts
10
21.5250
20
116.7750
30
0.0
11
7.5250
21
116.7750
31
0.0
0
LINE
8
Edge_Cuts
10
7.5250
20
116.7750
30
0.0
11
7.5250
21
83.7250
31
0.0
0
LINE
8
Edge_Cuts
10
11.2000
20
87.1000
30
0.0
11
17.8500
21
87.1000
31
0.0
0
LINE
8
Edge_Cuts
10
17.8500
20
87.1000
30
0.0
11
17.8500
21
99.4000
31
0.0
0
LINE
8
Edge_Cuts
10
17.8500
20
99.4000
30
0.0
11
11.2000
21
99.4000
31
0.0
0
LINE
8
Edge_Cuts
10
11.2000
20
99.4000
30
0.0
11
11.2000
21
87.1000
31
0.0
0
LINE
8
Edge_Cuts
10
11.2000
20
101.1000
30
0.0
11
17.8500
21
101.1000
31
0.0
0
LINE
8
Edge_Cuts
10
17.8500
20
101.1000
30
0.0
11
17.8500
21
113.4000
31
0.0
0
LINE
8
Edge_Cuts
10
17.8500
20
113.4000
30
0.0
11
11.2000
21
113.4000
31
0.0
0
LINE
8
Edge_Cuts
10
11.2000
20
113.4000
30
0.0
11
11.2000
21
101.1000
31
0.0
0
LINE
8
Edge_Cuts
10
26.5750
20
83.7250
30
0.0
11
40.5750
21
83.7250
31
0.0
0
LINE
8
Edge_Cuts
10
40.5750
20
83.7250
30
0.0
11
40.5750
21
97.7250
31
0.0
0
LINE
8
Edge_Cuts
10
40.5750
20
97.7250
30
0.0
11
26.5750
21
97.7250
31
0.0
0
LINE
8
Edge_Cuts
10
26.5750
20
97.7250
30
0.0
11
26.5750
21
83.7250
31
0.0
0
LINE
8
Edge_Cuts
10
45.6250
20
83.7250
30
0.0
11
59.6250
21
83.7250
31
0.0
0
LINE
8
Edge_Cuts
10
59.6250
20
83.7250
30
0.0
11
59.6250
21
97.7250
31
0.0
0
LINE
8
Edge_Cuts
10
59.6250
20
97.7250
30
0.0
11
45.6250
21
97.7250
31
0.0
0
LINE
8
Edge_Cuts
10
45.6250
20
97.7250
30
0.0
11
45.6250
21
83.7250
31
0.0
0
LINE
8
Edge_Cuts
10
64.6750
20
83.7250
30
0.0
11
78.6750
21
83.7250
31
0.0
0
LINE
8
Edge_Cuts
10
78.6750
20
83.7250
30
0.0
11
78.6750
21
97.7250
31
0.0
0
LINE
8
Edge_Cuts
10
78.6750
20
97.7250
30
0.0
11
64.6750
21
97.7250
31
0.0
0
LINE
8
Edge_Cuts
10
64.6750
20
97.7250
30
0.0
11
64.6750
21
83.7250
31
0.0
0
LINE
8
Edge_Cuts
10
83.7250
20
83.7250
30
0.0
11
97.7250
21
83.7250
31
0.0
0
LINE
8
Edge_Cuts
10
97.7250
20
83.7250
30
0.0
11
97.7250
21
97.7250
31
0.0
0
LINE
8
Edge_Cuts
10
97.7250
20
97.7250
30
0.0
11
83.7250
21
97.7250
31
0.0
0
LINE
8
Edge_Cuts
10
83.7250
20
97.7250
30
0.0
11
83.7250
21
83.7250
31
0.0
0
LINE
8
Edge_Cuts
10
102.7750
20
83.7250
30
0.0
11
116.7750
21
83.7250
31
0.0
0
LINE
8
Edge_Cuts
10
116.7750
20
83.7250
30
0.0
11
116.7750
21
97.7250
31
0.0
0
LINE
8
Edge_Cuts
10
116.7750
20
97.7250
30
0.0
11
102.7750
21
97.7250
31
0.0
0
LINE
8
Edge_Cuts
10
102.7750
20
97.7250
30
0.0
11
102.7750
21
83.7250
31
0.0
0
LINE
8
Edge_Cuts
10
121.8250
20
83.7250
30
0.0
11
135.8250
21
83.7250
31
0.0
0
LINE
8
Edge_Cuts
10
135.8250
20
83.7250
30
0.0
11
135.8250
21
97.7250
31
0.0
0
LINE
8
Edge_Cuts
10
135.8250
20
97.7250
30
0.0
11
121.8250
21
97.7250
31
0.0
0
LINE
8
Edge_Cuts
10
121.8250
20
97.7250
30
0.0
11
121.8250
21
83.7250
31
0.0
0
LINE
8
Edge_Cuts
10
140.8750
20
83.7250
30
0.0
11
154.8750
21
83.7250
31
0.0
0
LINE
8
Edge_Cuts
10
154.8750
20
83.7250
30
0.0
11
154.8750
21
97.7250
31
0.0
0
LINE
8
Edge_Cuts
10
154.8750
20
97.7250
30
0.0
11
140.8750
21
97.7250
31
0.0
0
LINE
8
Edge_Cuts
10
140.8750
20
97.7250
30
0.0
11
140.8750
21
83.7250
31
0.0
0
LINE
8
Edge_Cuts
10
159.9250
20
83.7250
30
0.0
11
173.9250
21
83.7250
31
0.0
0
LINE
8
Edge_Cuts
10
173.9250
20
83.7250
30
0.0
11
173.9250
21
97.7250
31
0.0
0
LINE
8
Edge_Cuts
10
173.9250
20
97.7250
30
0.0
11
159.9250
21
97.7250
31
0.0
0
LINE
8
Edge_Cuts
10
159.9250
20
97.7250
30
0.0
11
159.9250
21
83.7250
31
0.0
0
LINE
8
Edge_Cuts
10
178.9750
20
83.7250
30
0.0
11
192.9750
21
83.7250
31
0.0
0
LINE
8
Edge_Cuts
10
192.9750
20
83.7250
30
0.0
11
192.9750
21
97.7250
31
0.0
0
LINE
8
Edge_Cuts
10
192.9750
20
97.7250
30
0.0
11
178.9750
21
97.7250
31
0.0
0
LINE
8
Edge_Cuts
10
178.9750
20
97.7250
30
0.0
11
178.9750
21
83.7250
31
0.0
0
LINE
8
Edge_Cuts
10
198.0250
20
83.7250
30
0.0
11
212.0250
21
83.7250
31
0.0
0
LINE
8
Edge_Cuts
10
212.0250
20
83.7250
30
0.0
11
212.0250
21
97.7250
31
0.0
0
LINE
8
Edge_Cuts
10
212.0250
20
97.7250
30
0.0
11
198.0250
21
97.7250
31
0.0
0
LINE
8
Edge_Cuts
10
198.0250
20
97.7250
30
0.0
11
198.0250
21
83.7250
31
0.0
0
LINE
8
Edge_Cuts
10
217.0750
20
83.7250
30
0.0
11
231.0750
21
83.7250
31
0.0
0
LINE
8
Edge_Cuts
10
231.0750
20
83.7250
30
0.0
11
231.0750
21
97.7250
31
0.0
0
LINE
8
Edge_Cuts
10
231.0750
20
97.7250
30
0.0
11
217.0750
21
97.7250
31
0.0
0
LINE
8
Edge_Cuts
10
217.0750
20
97.7250
30
0.0
11
217.0750
21
83.7250
31
0.0
0
LINE
8
Edge_Cuts
10
236.1250
20
83.7250
30
0.0
11
250.1250
21
83.7250
31
0.0
0
LINE
8
Edge_Cuts
10
250.1250
20
83.7250
30
0.0
11
250.1250
21
97.7250
31
0.0
0
LINE
8
Edge_Cuts
10
250.1250
20
97.7250
30
0.0
11
236.1250
21
97.7250
31
0.0
0
LINE
8
Edge_Cuts
10
236.1250
20
97.7250
30
0.0
11
236.1250
21
83.7250
31
0.0
0
LINE
8
Edge_Cuts
10
255.1750
20
83.7250
30
0.0
11
269.1750
21
83.7250
31
0.0
0
LINE
8
Edge_Cuts
10
269.1750
20
83.7250
30
0.0
11
269.1750
21
97.7250
31
0.0
0
LINE
8
Edge_Cuts
10
269.1750
20
97.7250
30
0.0
11
255.1750
21
97.7250
31
0.0
0
LINE
8
Edge_Cuts
10
255.1750
20
97.7250
30
0.0
11
255.1750
21
83.7250
31
0.0
0
LINE
8
Edge_Cuts
10
26.5750
20
102.7750
30
0.0
11
40.5750
21
102.7750
31
0.0
0
LINE
8
Edge_Cuts
10
40.5750
20
102.7750
30
0.0
11
40.5750
21
116.7750
31
0.0
0
LINE
8
Edge_Cuts
10
40.5750
20
116.7750
30
0.0
11
26.5750
21
116.7750
31
0.0
0
LINE
8
Edge_Cuts
10
26.5750
20
116.7750
30
0.0
11
26.5750
21
102.7750
31
0.0
0
LINE
8
Edge_Cuts
10
45.6250
20
102.7750
30
0.0
11
59.6250
21
102.7750
31
0.0
0
LINE
8
Edge_Cuts
10
59.6250
20
102.7750
30
0.0
11
59.6250
21
116.7750
31
0.0
0
LINE
8
Edge_Cuts
10
59.6250
20
116.7750
30
0.0
11
45.6250
21
116.7750
31
0.0
0
LINE
8
Edge_Cuts
10
45.6250
20
116.7750
30
0.0
11
45.6250
21
102.7750
31
0.0
0
LINE
8
Edge_Cuts
10
64.6750
20
102.7750
30
0.0
11
78.6750
21
102.7750
31
0.0
0
LINE
8
Edge_Cuts
10
78.6750
20
102.7750
30
0.0
11
78.6750
21
116.7750
31
0.0
0
LINE
8
Edge_Cuts
10
78.6750
20
116.7750
30
0.0
11
64.6750
21
116.7750
31
0.0
0
LINE
8
Edge_Cuts
10
64.6750
20
116.7750
30
0.0
11
64.6750
21
102.7750
31
0.0
0
LINE
8
Edge_Cuts
10
83.7250
20
102.7750
30
0.0
11
97.7250
21
102.7750
31
0.0
0
LINE
8
Edge_Cuts
10
97.7250
20
102.7750
30
0.0
11
97.7250
21
116.7750
31
0.0
0
LINE
8
Edge_Cuts
10
97.7250
20
116.7750
30
0.0
11
83.7250
21
116.7750
31
0.0
0
LINE
8
Edge_Cuts
10
83.7250
20
116.7750
30
0.0
11
83.7250
21
102.7750
31
0.0
0
LINE
8
Edge_Cuts
10
102.7750
20
102.7750
30
0.0
11
116.7750
21
102.7750
31
0.0
0
LINE
8
Edge_Cuts
10
116.7750
20
102.7750
30
0.0
11
116.7750
21
116.7750
31
0.0
0
LINE
8
Edge_Cuts
10
116.7750
20
116.7750
30
0.0
11
102.7750
21
116.7750
31
0.0
0
LINE
8
Edge_Cuts
10
102.7750
20
116.7750
30
0.0
11
102.7750
21
102.7750
31
0.0
0
LINE
8
Edge_Cuts
10
121.8250
20
102.7750
30
0.0
11
135.8250
21
102.7750
31
0.0
0
LINE
8
Edge_Cuts
10
135.8250
20
102.7750
30
0.0
11
135.8250
21
116.7750
31
0.0
0
LINE
8
Edge_Cuts
10
135.8250
20
116.7750
30
0.0
11
121.8250
21
116.7750
31
0.0
0
LINE
8
Edge_Cuts
10
121.8250
20
116.7750
30
0.0
11
121.8250
21
102.7750
31
0.0
0
LINE
8
Edge_Cuts
10
140.8750
20
102.7750
30
0.0
11
154.8750
21
102.7750
31
0.0
0
LINE
8
Edge_Cuts
10
154.8750
20
102.7750
30
0.0
11
154.8750
21
116.7750
31
0.0
0
LINE
8
Edge_Cuts
10
154.8750
20
116.7750
30
0.0
11
140.8750
21
116.7750
31
0.0
0
LINE
8
Edge_Cuts
10
140.8750
20
116.7750
30
0.0
11
140.8750
21
102.7750
31
0.0
0
LINE
8
Edge_Cuts
10
159.9250
20
102.7750
30
0.0
11
173.9250
21
102.7750
31
0.0
0
LINE
8
Edge_Cuts
10
173.9250
20
102.7750
30
0.0
11
173.9250
21
116.7750
31
0.0
0
LINE
8
Edge_Cuts
10
173.9250
20
116.7750
30
0.0
11
159.9250
21
116.7750
31
0.0
0
LINE
8
Edge_Cuts
10
159.9250
20
116.7750
30
0.0
11
159.9250
21
102.7750
31
0.0
0
LINE
8
Edge_Cuts
10
178.9750
20
102.7750
30
0.0
11
192.9750
21
102.7750
31
0.0
0
LINE
8
Edge_Cuts
10
192.9750
20
102.7750
30
0.0
11
192.9750
21
116.7750
31
0.0
0
LINE
8
Edge_Cuts
10
192.9750
20
116.7750
30
0.0
11
178.9750
21
116.7750
31
0.0
0
LINE
8
Edge_Cuts
10
178.9750
20
116.7750
30
0.0
11
178.9750
21
102.7750
31
0.0
0
LINE
8
Edge_Cuts
10
198.0250
20
102.7750
30
0.0
11
212.0250
21
102.7750
31
0.0
0
LINE
8
Edge_Cuts
10
212.0250
20
102.7750
30
0.0
11
212.0250
21
116.7750
31
0.0
0
LINE
8
Edge_Cuts
10
212.0250
20
116.7750
30
0.0
11
198.0250
21
116.7750
31
0.0
0
LINE
8
Edge_Cuts
10
198.0250
20
116.7750
30
0.0
11
198.0250
21
102.7750
31
0.0
0
LINE
8
Edge_Cuts
10
217.0750
20
102.7750
30
0.0
11
231.0750
21
102.7750
31
0.0
0
LINE
8
Edge_Cuts
10
231.0750
20
102.7750
30
0.0
11
231.0750
21
116.7750
31
0.0
0
LINE
8
Edge_Cuts
10
231.0750
20
116.7750
30
0.0
11
217.0750
21
116.7750
31
0.0
0
LINE
8
Edge_Cuts
10
217.0750
20
116.7750
30
0.0
11
217.0750
21
102.7750
31
0.0
0
LINE
8
Edge_Cuts
10
236.1250
20
102.7750
30
0.0
11
250.1250
21
102.7750
31
0.0
0
LINE
8
Edge_Cuts
10
250.1250
20
102.7750
30
0.0
11
250.1250
21
116.7750
31
0.0
0
LINE
8
Edge_Cuts
10
250.1250
20
116.7750
30
0.0
11
236.1250
21
116.7750
31
0.0
0
LINE
8
Edge_Cuts
10
236.1250
20
116.7750
30
0.0
11
236.1250
21
102.7750
31
0.0
0
LINE
8
Edge_Cuts
10
255.1750
20
102.7750
30
0.0
11
269.1750
21
102.7750
31
0.0
0
LINE
8
Edge_Cuts
10
269.1750
20
102.7750
30
0.0
11
269.1750
21
116.7750
31
0.0
0
LINE
8
Edge_Cuts
10
269.1750
20
116.7750
30
0.0
11
255.1750
21
116.7750
31
0.0
0
LINE
8
Edge_Cuts
10
255.1750
20
116.7750
30
0.0
11
255.1750
21
102.7750
31
0.0
0
LINE
8
Edge_Cuts
10
7.5250
20
121.8250
30
0.0
11
21.5250
21
121.8250
31
0.0
0
LINE
8
Edge_Cuts
10
21.5250
20
121.8250
30
0.0
11
21.5250
21
135.8250
31
0.0
0
LINE
8
Edge_Cuts
10
21.5250
20
135.8250
30
0.0
11
7.5250
21
135.8250
31
0.0
0
LINE
8
Edge_Cuts
10
7.5250
20
135.8250
30
0.0
11
7.5250
21
121.8250
31
0.0
0
LINE
8
Edge_Cuts
10
26.5750
20
121.8250
30
0.0
11
40.5750
21
121.8250
31
0.0
0
LINE
8
Edge_Cuts
10
40.5750
20
121.8250
30
0.0
11
40.5750
21
135.8250
31
0.0
0
LINE
8
Edge_Cuts
10
40.5750
20
135.8250
30
0.0
11
26.5750
21
135.8250
31
0.0
0
LINE
8
Edge_Cuts
10
26.5750
20
135.8250
30
0.0
11
26.5750
21
121.8250
31
0.0
0
LINE
8
Edge_Cuts
10
45.6250
20
121.8250
30
0.0
11
59.6250
21
121.8250
31
0.0
0
LINE
8
Edge_Cuts
10
59.6250
20
121.8250
30
0.0
11
59.6250
21
135.8250
31
0.0
0
LINE
8
Edge_Cuts
10
59.6250
20
135.8250
30
0.0
11
45.6250
21
135.8250
31
0.0
0
LINE
8
Edge_Cuts
10
45.6250
20
135.8250
30
0.0
11
45.6250
21
121.8250
31
0.0
0
LINE
8
Edge_Cuts
10
64.6750
20
121.8250
30
0.0
11
78.6750
21
121.8250
31
0.0
0
LINE
8
Edge_Cuts
10
78.6750
20
121.8250
30
0.0
11
78.6750
21
135.8250
31
0.0
0
LINE
8
Edge_Cuts
10
78.6750
20
135.8250
30
0.0
11
64.6750
21
135.8250
31
0.0
0
LINE
8
Edge_Cuts
10
64.6750
20
135.8250
30
0.0
11
64.6750
21
121.8250
31
0.0
0
LINE
8
Edge_Cuts
10
83.7250
20
121.8250
30
0.0
11
97.7250
21
121.8250
31
0.0
0
LINE
8
Edge_Cuts
10
97.7250
20
121.8250
30
0.0
11
97.7250
21
135.8250
31
0.0
0
LINE
8
Edge_Cuts
10
97.7250
20
135.8250
30
0.0
11
83.7250
21
135.8250
31
0.0
0
LINE
8
Edge_Cuts
10
83.7250
20
135.8250
30
0.0
11
83.7250
21
121.8250
31
0.0
0
LINE
8
Edge_Cuts
10
102.7750
20
121.8250
30
0.0
11
116.7750
21
121.8250
31
0.0
0
LINE
8
Edge_Cuts
10
116.7750
20
121.8250
30
0.0
11
116.7750
21
135.8250
31
0.0
0
LINE
8
Edge_Cuts
10
116.7750
20
135.8250
30
0.0
11
102.7750
21
135.8250
31
0.0
0
LINE
8
Edge_Cuts
10
102.7750
20
135.8250
30
0.0
11
102.7750
21
121.8250
31
0.0
0
LINE
8
Edge_Cuts
10
121.8250
20
121.8250
30
0.0
11
135.8250
21
121.8250
31
0.0
0
LINE
8
Edge_Cuts
10
135.8250
20
121.8250
30
0.0
11
135.8250
21
135.8250
31
0.0
0
LINE
8
Edge_Cuts
10
135.8250
20
135.8250
30
0.0
11
121.8250
21
135.8250
31
0.0
0
LINE
8
Edge_Cuts
10
121.8250
20
135.8250
30
0.0
11
121.8250
21
121.8250
31
0.0
0
LINE
8
Edge_Cuts
10
140.8750
20
121.8250
30
0.0
11
154.8750
21
121.8250
31
0.0
0
LINE
8
Edge_Cuts
10
154.8750
20
121.8250
30
0.0
11
154.8750
21
135.8250
31
0.0
0
LINE
8
Edge_Cuts
10
154.8750
20
135.8250
30
0.0
11
140.8750
21
135.8250
31
0.0
0
LINE
8
Edge_Cuts
10
140.8750
20
135.8250
30
0.0
11
140.8750
21
121.8250
31
0.0
0
LINE
8
Edge_Cuts
10
159.9250
20
121.8250
30
0.0
11
173.9250
21
121.8250
31
0.0
0
LINE
8
Edge_Cuts
10
173.9250
20
121.8250
30
0.0
11
173.9250
21
135.8250
31
0.0
0
LINE
8
Edge_Cuts
10
173.9250
20
135.8250
30
0.0
11
159.9250
21
135.8250
31
0.0
0
LINE
8
Edge_Cuts
10
159.9250
20
135.8250
30
0.0
11
159.9250
21
121.8250
31
0.0
0
LINE
8
Edge_Cuts
10
178.9750
20
121.8250
30
0.0
11
192.9750
21
121.8250
31
0.0
0
LINE
8
Edge_Cuts
10
192.9750
20
121.8250
30
0.0
11
192.9750
21
135.8250
31
0.0
0
LINE
8
Edge_Cuts
10
192.9750
20
135.8250
30
0.0
11
178.9750
21
135.8250
31
0.0
0
LINE
8
Edge_Cuts
10
178.9750
20
135.8250
30
0.0
11
178.9750
21
121.8250
31
0.0
0
LINE
8
Edge_Cuts
10
198.0250
20
121.8250
30
0.0
11
212.0250
21
121.8250
31
0.0
0
LINE
8
Edge_Cuts
10
212.0250
20
121.8250
30
0.0
11
212.0250
21
135.8250
31
0.0
0
LINE
8
Edge_Cuts
10
212.0250
20
135.8250
30
0.0
11
198.0250
21
135.8250
31
0.0
0
LINE
8
Edge_Cuts
10
198.0250
20
135.8250
30
0.0
11
198.0250
21
121.8250
31
0.0
0
LINE
8
Edge_Cuts
10
217.0750
20
121.8250
30
0.0
11
231.0750
21
121.8250
31
0.0
0
LINE
8
Edge_Cuts
10
231.0750
20
121.8250
30
0.0
11
231.0750
21
135.8250
31
0.0
0
LINE
8
Edge_Cuts
10
231.0750
20
135.8250
30
0.0
11
217.0750
21
135.8250
31
0.0
0
LINE
8
Edge_Cuts
10
217.0750
20
135.8250
30
0.0
11
217.0750
21
121.8250
31
0.0
0
LINE
8
Edge_Cuts
10
236.1250
20
121.8250
30
0.0
11
250.1250
21
121.8250
31
0.0
0
LINE
8
Edge_Cuts
10
250.1250
20
121.8250
30
0.0
11
250.1250
21
135.8250
31
0.0
0
LINE
8
Edge_Cuts
10
250.1250
20
135.8250
30
0.0
11
236.1250
21
135.8250
31
0.0
0
LINE
8
Edge_Cuts
10
236.1250
20
135.8250
30
0.0
11
236.1250
21
121.8250
31
0.0
0
LINE
8
Edge_Cuts
10
255.1750
20
121.8250
30
0.0
11
269.1750
21
121.8250
31
0.0
0
LINE
8
Edge_Cuts
10
269.1750
20
121.8250
30
0.0
11
269.1750
21
135.8250
31
0.0
0
LINE
8
Edge_Cuts
10
269.1750
20
135.8250
30
0.0
11
255.1750
21
135.8250
31
0.0
0
LINE
8
Edge_Cuts
10
255.1750
20
135.8250
30
0.0
11
255.1750
21
121.8250
31
0.0
0
LINE
8
Edge_Cuts
10
7.5250
20
140.8750
30
0.0
11
21.5250
21
140.8750
31
0.0
0
LINE
8
Edge_Cuts
10
21.5250
20
140.8750
30
0.0
11
21.5250
21
154.8750
31
0.0
0
LINE
8
Edge_Cuts
10
21.5250
20
154.8750
30
0.0
11
7.5250
21
154.8750
31
0.0
0
LINE
8
Edge_Cuts
10
7.5250
20
154.8750
30
0.0
11
7.5250
21
140.8750
31
0.0
0
LINE
8
Edge_Cuts
10
26.5750
20
140.8750
30
0.0
11
40.5750
21
140.8750
31
0.0
0
LINE
8
Edge_Cuts
10
40.5750
20
140.8750
30
0.0
11
40.5750
21
154.8750
31
0.0
0
LINE
8
Edge_Cuts
10
40.5750
20
154.8750
30
0.0
11
26.5750
21
154.8750
31
0.0
0
LINE
8
Edge_Cuts
10
26.5750
20
154.8750
30
0.0
11
26.5750
21
140.8750
31
0.0
0
LINE
8
Edge_Cuts
10
45.6250
20
140.8750
30
0.0
11
59.6250
21
140.8750
31
0.0
0
LINE
8
Edge_Cuts
10
59.6250
20
140.8750
30
0.0
11
59.6250
21
154.8750
31
0.0
0
LINE
8
Edge_Cuts
10
59.6250
20
154.8750
30
0.0
11
45.6250
21
154.8750
31
0.0
0
LINE
8
Edge_Cuts
10
45.6250
20
154.8750
30
0.0
11
45.6250
21
140.8750
31
0.0
0
LINE
8
Edge_Cuts
10
64.6750
20
140.8750
30
0.0
11
78.6750
21
140.8750
31
0.0
0
LINE
8
Edge_Cuts
10
78.6750
20
140.8750
30
0.0
11
78.6750
21
154.8750
31
0.0
0
LINE
8
Edge_Cuts
10
78.6750
20
154.8750
30
0.0
11
64.6750
21
154.8750
31
0.0
0
LINE
8
Edge_Cuts
10
64.6750
20
154.8750
30
0.0
11
64.6750
21
140.8750
31
0.0
0
LINE
8
Edge_Cuts
10
83.7250
20
140.8750
30
0.0
11
97.7250
21
140.8750
31
0.0
0
LINE
8
Edge_Cuts
10
97.7250
20
140.8750
30
0.0
11
97.7250
21
154.8750
31
0.0
0
LINE
8
Edge_Cuts
10
97.7250
20
154.8750
30
0.0
11
83.7250
21
154.8750
31
0.0
0
LINE
8
Edge_Cuts
10
83.7250
20
154.8750
30
0.0
11
83.7250
21
140.8750
31
0.0
0
LINE
8
Edge_Cuts
10
102.7750
20
140.8750
30
0.0
11
116.7750
21
140.8750
31
0.0
0
LINE
8
Edge_Cuts
10
116.7750
20
140.8750
30
0.0
11
116.7750
21
154.8750
31
0.0
0
LINE
8
Edge_Cuts
10
116.7750
20
154.8750
30
0.0
11
102.7750
21
154.8750
31
0.0
0
LINE
8
Edge_Cuts
10
102.7750
20
154.8750
30
0.0
11
102.7750
21
140.8750
31
0.0
0
LINE
8
Edge_Cuts
10
121.8250
20
140.8750
30
0.0
11
135.8250
21
140.8750
31
0.0
0
LINE
8
Edge_Cuts
10
135.8250
20
140.8750
30
0.0
11
135.8250
21
154.8750
31
0.0
0
LINE
8
Edge_Cuts
10
135.8250
20
154.8750
30
0.0
11
121.8250
21
154.8750
31
0.0
0
LINE
8
Edge_Cuts
10
121.8250
20
154.8750
30
0.0
11
121.8250
21
140.8750
31
0.0
0
LINE
8
Edge_Cuts
10
140.8750
20
140.8750
30
0.0
11
154.8750
21
140.8750
31
0.0
0
LINE
8
Edge_Cuts
10
154.8750
20
140.8750
30
0.0
11
154.8750
21
154.8750
31
0.0
0
LINE
8
Edge_Cuts
10
154.8750
20
154.8750
30
0.0
11
140.8750
21
154.8750
31
0.0
0
LINE
8
Edge_Cuts
10
140.8750
20
154.8750
30
0.0
11
140.8750
21
140.8750
31
0.0
0
LINE
8
Edge_Cuts
10
159.9250
20
140.8750
30
0.0
11
173.9250
21
140.8750
31
0.0
0
LINE
8
Edge_Cuts
10
173.9250
20
140.8750
30
0.0
11
173.9250
21
154.8750
31
0.0
0
LINE
8
Edge_Cuts
10
173.9250
20
154.8750
30
0.0
11
159.9250
21
154.8750
31
0.0
0
LINE
8
Edge_Cuts
10
159.9250
20
154.8750
30
0.0
11
159.9250
21
140.8750
31
0.0
0
LINE
8
Edge_Cuts
10
178.9750
20
140.8750
30
0.0
11
192.9750
21
140.8750
31
0.0
0
LINE
8
Edge_Cuts
10
192.9750
20
140.8750
30
0.0
11
192.9750
21
154.8750
31
0.0
0
LINE
8
Edge_Cuts
10
192.9750
20
154.8750
30
0.0
11
178.9750
21
154.8750
31
0.0
0
LINE
8
Edge_Cuts
10
178.9750
20
154.8750
30
0.0
11
178.9750
21
140.8750
31
0.0
0
LINE
8
Edge_Cuts
10
198.0250
20
140.8750
30
0.0
11
212.0250
21
140.8750
31
0.0
0
LINE
8
Edge_Cuts
10
212.0250
20
140.8750
30
0.0
11
212.0250
21
154.8750
31
0.0
0
LINE
8
Edge_Cuts
10
212.0250
20
154.8750
30
0.0
11
198.0250
21
154.8750
31
0.0
0
LINE
8
Edge_Cuts
10
198.0250
20
154.8750
30
0.0
11
198.0250
21
140.8750
31
0.0
0
LINE
8
Edge_Cuts
10
217.0750
20
140.8750
30
0.0
11
231.0750
21
140.8750
31
0.0
0
LINE
8
Edge_Cuts
10
231.0750
20
140.8750
30
0.0
11
231.0750
21
154.8750
31
0.0
0
LINE
8
Edge_Cuts
10
231.0750
20
154.8750
30
0.0
11
217.0750
21
154.8750
31
0.0
0
LINE
8
Edge_Cuts
10
217.0750
20
154.8750
30
0.0
11
217.0750
21
140.8750
31
0.0
0
LINE
8
Edge_Cuts
10
236.1250
20
140.8750
30
0.0
11
250.1250
21
140.8750
31
0.0
0
LINE
8
Edge_Cuts
10
250.1250
20
140.8750
30
0.0
11
250.1250
21
154.8750
31
0.0
0
LINE
8
Edge_Cuts
10
250.1250
20
154.8750
30
0.0
11
236.1250
21
154.8750
31
0.0
0
LINE
8
Edge_Cuts
10
236.1250
20
154.8750
30
0.0
11
236.1250
21
140.8750
31
0.0
0
LINE
8
Edge_Cuts
10
255.1750
20
140.8750
30
0.0
11
269.1750
21
140.8750
31
0.0
0
LINE
8
Edge_Cuts
10
269.1750
20
140.8750
30
0.0
11
269.1750
21
154.8750
31
0.0
0
LINE
8
Edge_Cuts
10
269.1750
20
154.8750
30
0.0
11
255.1750
21
154.8750
31
0.0
0
LINE
8
Edge_Cuts
10
255.1750
20
154.8750
30
0.0
11
255.1750
21
140.8750
31
0.0
0
TEXT
8
Cmts_User
10
33.5750
20
3.0000
30
0.0
40
1.5000
1
2
72
1
11
33.5750
21
3.0000
31
0.0
0
TEXT
8
Cmts_User
10
52.6250
20
3.0000
30
0.0
40
1.5000
1
A
72
1
11
52.6250
21
3.0000
31
0.0
0
TEXT
8
Cmts_User
10
71.6750
20
3.0000
30
0.0
40
1.5000
1
K
72
1
11
71.6750
21
3.0000
31
0.0
0
TEXT
8
Cmts_User
10
90.7250
20
3.0000
30
0.0
40
1.5000
1
Q
72
1
11
90.7250
21
3.0000
31
0.0
0
TEXT
8
Cmts_User
10
109.7750
20
3.0000
30
0.0
40
1.5000
1
J
72
1
11
109.7750
21
3.0000
31
0.0
0
TEXT
8
Cmts_User
10
128.8250
20
3.0000
30
0.0
40
1.5000
1
T
72
1
11
128.8250
21
3.0000
31
0.0
0
TEXT
8
Cmts_User
10
147.8750
20
3.0000
30
0.0
40
1.5000
1
9
72
1
11
147.8750
21
3.0000
31
0.0
0
TEXT
8
Cmts_User
10
166.9250
20
3.0000
30
0.0
40
1.5000
1
8
72
1
11
166.9250
21
3.0000
31
0.0
0
TEXT
8
Cmts_User
10
185.9750
20
3.0000
30
0.0
40
1.5000
1
7
72
1
11
185.9750
21
3.0000
31
0.0
0
TEXT
8
Cmts_User
10
205.0250
20
3.0000
30
0.0
40
1.5000
1
6
72
1
11
205.0250
21
3.0000
31
0.0
0
TEXT
8
Cmts_User
10
224.0750
20
3.0000
30
0.0
40
1.5000
1
5
72
1
11
224.0750
21
3.0000
31
0.0
0
TEXT
8
Cmts_User
10
243.1250
20
3.0000
30
0.0
40
1.5000
1
4
72
1
11
243.1250
21
3.0000
31
0.0
0
TEXT
8
Cmts_User
10
262.1750
20
3.0000
30
0.0
40
1.5000
1
3
72
1
11
262.1750
21
3.0000
31
0.0
0
TEXT
8
Cmts_User
10
14.5250
20
43.5750
30
0.0
40
1.2000
1
MODE
72
1
11
14.5250
21
43.5750
31
0.0
0
TEXT
8
Cmts_User
10
14.5250
20
81.6750
30
0.0
40
1.2000
1
PASS
72
1
11
14.5250
21
81.6750
31
0.0
0
TEXT
8
Cmts_User
10
14.5250
20
119.7750
30
0.0
40
1.2000
1
PLAY
72
1
11
14.5250
21
119.7750
31
0.0
0
TEXT
8
Cmts_User
10
14.5250
20
138.8250
30
0.0
40
1.2000
1
BgJK
72
1
11
14.5250
21
138.8250
31
0.0
0
TEXT
8
Cmts_User
10
14.5250
20
157.8750
30
0.0
40
1.2000
1
SmJK
72
1
11
14.5250
21
157.8750
31
0.0
0
TEXT
8
Cmts_User
10
138.3500
20
167.4000
30
0.0
40
2.5000
1
GUANDAN SWITCH PLATE  276.7x162.4mm  1.5mm FR4/AL
72
1
11
138.3500
21
167.4000
31
0.0
0
TEXT
8
Cmts_User
10
138.3500
20
172.4000
30
0.0
40
1.8000
1
106 x 1U cutouts (14x14mm) + 3 x 2U cutouts (14x33.05mm)
72
1
11
138.3500
21
172.4000
31
0.0
0
ENDSEC
0
EOF
